<svg width="300" height="229" viewBox="0 0 300 229" fill="none" xmlns="http://www.w3.org/2000/svg">
<g clip-path="url(#clip0)">
<path d="M215.881 135.736L218.241 134.244C218.466 134.099 218.687 133.943 218.914 133.798C213.853 132.906 209.24 130.27 205.84 126.326C202.44 122.382 200.456 117.367 200.217 112.111C200.044 108.496 200.711 104.89 202.164 101.591C203.516 98.5041 205.513 95.7588 208.014 93.5486C210.514 91.3384 213.458 89.7171 216.636 88.799L216.52 98.3153L221.622 87.9574C221.643 87.954 221.664 87.954 221.685 87.9574C224.642 87.816 227.597 88.2726 230.381 89.3012C233.166 90.3299 235.725 91.9103 237.913 93.9524C240.102 95.9945 241.876 98.4582 243.135 101.203C244.394 103.947 245.113 106.919 245.25 109.949C245.269 110.389 245.25 110.822 245.25 111.243C247.026 109.168 248.637 106.945 249.705 104.507C251.866 99.5712 251.917 93.9812 251.737 87.1871C251.395 73.7218 250.83 60.1562 250.091 46.6295C244.763 46.0233 239.821 43.4907 236.153 39.4867C232.484 35.4826 230.33 30.2696 230.076 24.7841C230.045 24.0752 230.054 23.3793 230.076 22.6866C230.076 22.5151 230.076 22.3403 230.101 22.1687C230.146 21.4987 230.206 20.8351 230.307 20.1813C230.307 20.0712 230.345 19.9677 230.364 19.8576C230.456 19.303 230.567 18.7549 230.695 18.2133C230.746 18.0126 230.793 17.8087 230.847 17.608C231.005 17.0189 231.163 16.4395 231.381 15.8666C231.447 15.6756 231.526 15.4911 231.596 15.3034C231.757 14.8826 231.931 14.4683 232.114 14.0572C232.212 13.8403 232.307 13.6267 232.411 13.4098C232.436 13.3548 232.458 13.2998 232.487 13.2448C234.866 8.43106 238.815 4.62354 243.65 2.48404C248.484 0.344543 253.898 0.0083428 258.949 1.53388L258.798 13.918L263.853 3.68962C267.999 6.12119 271.278 9.8473 273.21 14.3237C275.143 18.8001 275.628 23.7923 274.594 28.5712H274.62C274.585 28.7363 274.534 28.8949 274.496 29.0567C274.427 29.361 274.351 29.662 274.269 29.963C274.161 30.3482 274.041 30.7269 273.918 31.1056C273.823 31.3872 273.732 31.6753 273.628 31.9537C273.476 32.3615 273.312 32.7596 273.128 33.1578C273.027 33.3908 272.936 33.6271 272.812 33.8569C272.524 34.4525 272.208 35.0351 271.865 35.6048C271.748 35.8023 271.615 35.99 271.492 36.1875C271.252 36.5694 271.008 36.9481 270.746 37.3171C270.585 37.5437 270.411 37.7606 270.241 37.9839C269.994 38.3076 269.742 38.6313 269.479 38.9258C269.293 39.1427 269.103 39.3563 268.907 39.5732C268.633 39.871 268.348 40.1591 268.054 40.4439C267.862 40.6349 267.666 40.8258 267.464 41.0071C267.132 41.3081 266.784 41.5962 266.434 41.8778C266.257 42.0202 266.086 42.1691 265.903 42.3051C265.37 42.7108 264.819 43.0916 264.251 43.4477C264.143 43.5124 264.029 43.5674 263.935 43.6322C263.461 43.9203 262.987 44.1889 262.478 44.4414C262.267 44.5482 262.045 44.6421 261.827 44.7424C261.42 44.9302 261.009 45.1114 260.589 45.2765C260.346 45.3704 260.096 45.4578 259.847 45.5452C259.433 45.6908 259.012 45.8235 258.583 45.9433C258.33 46.0145 258.08 46.0857 257.825 46.1472C257.363 46.2605 256.893 46.3544 256.419 46.4353C256.387 46.4353 256.359 46.4353 256.327 46.4547C256.639 52.1602 256.916 57.8689 257.158 63.5808C258.502 60.7545 260.395 58.2393 262.722 56.1894C265.048 54.1396 267.759 52.5983 270.688 51.6603C273.616 50.7222 276.701 50.4071 279.753 50.7342C282.805 51.0614 285.76 52.0239 288.435 53.5628L284.451 64.7461L292.647 56.6831C297.034 60.8028 299.647 66.5369 299.913 72.6278C300.017 74.7649 299.825 76.9065 299.341 78.9882C298.312 83.493 295.985 87.5769 292.662 90.71C289.339 93.8431 285.174 95.8808 280.707 96.5588C276.239 97.2367 271.677 96.5236 267.61 94.512C263.543 92.5003 260.16 89.283 257.9 85.2773C257.9 85.8567 257.941 86.4394 257.957 87.0187C258.106 93.0134 258.292 100.471 255.376 107.132C253.402 111.648 250.22 115.315 247.077 118.601C245.032 120.74 242.913 122.808 240.739 124.812C238.602 127.752 235.812 130.129 232.601 131.745C229.03 134.564 225.334 137.203 221.511 139.663L219.189 141.197C217.044 142.56 214.845 143.958 212.687 145.405C213.066 145.366 213.442 145.324 213.828 145.308C218.604 145.078 223.328 146.411 227.317 149.112C231.306 151.814 234.353 155.744 236.019 160.336L221.935 172.083L237.415 168.403C237.411 172.307 236.441 176.147 234.595 179.564C232.75 182.98 230.089 185.862 226.861 187.939C223.634 190.016 219.945 191.221 216.14 191.441C212.335 191.662 208.537 190.89 205.102 189.199C205.449 189.646 205.8 190.089 206.147 190.533C206.839 191.416 207.528 192.294 208.201 193.164C217.363 205.053 219.916 216.343 215.376 224.95L209.86 221.895C214.283 213.518 207.648 202.797 203.279 197.146C202.619 196.291 201.942 195.43 201.26 194.556C195.406 187.111 188.771 178.657 188.939 168.296C189.176 152.694 203.99 143.285 215.881 135.736Z" fill="#F3F3F3"/>
<path d="M143.907 228.38C223.385 228.38 287.814 225.337 287.814 221.583C287.814 217.829 223.385 214.786 143.907 214.786C64.4295 214.786 0 217.829 0 221.583C0 225.337 64.4295 228.38 143.907 228.38Z" fill="#E5E5E5"/>
<path d="M260.166 219.049C261.114 217.265 260.04 215.08 258.814 213.488C257.588 211.895 256.094 210.251 256.125 208.215C256.17 205.302 259.187 203.583 261.601 202.039C263.388 200.892 265.037 199.533 266.513 197.99C267.133 197.396 267.645 196.695 268.027 195.918C268.523 194.779 268.51 193.484 268.478 192.235C268.373 188.079 268.173 183.927 267.878 179.779" stroke="#3F3D56" stroke-width="0.998733" stroke-miterlimit="10"/>
<path d="M272.463 179.559C272.428 178.798 272.207 178.059 271.821 177.409C271.434 176.759 270.895 176.218 270.252 175.837L269.26 177.85L269.288 175.416C268.61 175.207 267.892 175.169 267.196 175.304C266.5 175.439 265.846 175.743 265.289 176.191C264.732 176.639 264.287 177.218 263.994 177.878C263.7 178.538 263.566 179.261 263.601 179.986C263.657 181.188 264.176 182.318 265.044 183.128C265.474 183.529 265.977 183.839 266.524 184.041C267.072 184.243 267.652 184.332 268.233 184.304C268.814 184.276 269.384 184.131 269.91 183.877C270.436 183.624 270.908 183.266 271.299 182.826C271.691 182.385 271.994 181.87 272.191 181.309C272.388 180.749 272.475 180.154 272.447 179.559H272.463Z" fill="#57B793"/>
<path d="M264.555 210.309C264.091 211.233 263.33 211.965 262.402 212.383C261.473 212.802 260.432 212.88 259.454 212.605C258.476 212.331 257.619 211.72 257.028 210.876C256.437 210.031 256.147 209.004 256.207 207.967C256.267 206.929 256.673 205.944 257.358 205.177C258.042 204.41 258.963 203.907 259.966 203.753C260.969 203.599 261.994 203.803 262.868 204.331C263.742 204.858 264.412 205.677 264.767 206.651L261.999 208.959L265.045 208.234C265.045 208.956 264.877 209.667 264.555 210.309V210.309Z" fill="#57B793"/>
<path d="M262.364 201.475C261.782 201.504 261.2 201.415 260.652 201.213C260.104 201.01 259.601 200.699 259.17 200.297C258.74 199.895 258.392 199.41 258.145 198.87C257.898 198.329 257.758 197.744 257.732 197.148C257.697 196.437 257.828 195.728 258.114 195.079C258.38 194.472 258.772 193.932 259.263 193.497C259.755 193.062 260.333 192.742 260.958 192.561L260.936 194.435L261.94 192.396C263.116 192.34 264.264 192.764 265.134 193.576C266.004 194.387 266.523 195.52 266.578 196.724C266.633 197.928 266.219 199.105 265.427 199.996C264.635 200.887 263.529 201.419 262.354 201.475H262.364Z" fill="#57B793"/>
<path d="M273.129 194.125C271.956 194.181 270.809 193.758 269.94 192.949C269.071 192.139 268.552 191.009 268.497 189.807C268.442 188.605 268.855 187.43 269.645 186.54C270.436 185.65 271.539 185.118 272.712 185.062C273.541 185.02 274.365 185.22 275.087 185.638L274.304 187.839L275.915 186.253C276.78 187.062 277.296 188.19 277.349 189.389C277.37 189.809 277.331 190.23 277.236 190.639C277.015 191.598 276.494 192.458 275.753 193.087C275.012 193.716 274.09 194.081 273.129 194.125V194.125Z" fill="#57B793"/>
<path opacity="0.1" d="M271.867 180.757C270.844 180.873 269.849 181.2 268.822 181.265C267.795 181.33 266.667 181.077 266.016 180.258C265.666 179.818 265.492 179.261 265.195 178.782C264.915 178.335 264.532 177.965 264.08 177.705C263.812 178.278 263.665 178.902 263.648 179.537C263.631 180.171 263.745 180.803 263.981 181.39C264.218 181.977 264.572 182.507 265.022 182.944C265.471 183.382 266.005 183.718 266.589 183.93C267.173 184.143 267.795 184.227 268.413 184.178C269.031 184.129 269.632 183.947 270.177 183.644C270.722 183.342 271.199 182.925 271.577 182.422C271.954 181.918 272.225 181.339 272.37 180.721C272.199 180.728 272.032 180.741 271.867 180.757Z" fill="black"/>
<path opacity="0.1" d="M273.13 194.125C272.365 194.164 271.603 194 270.919 193.648C270.235 193.295 269.652 192.767 269.227 192.115C268.802 191.462 268.549 190.708 268.494 189.925C268.439 189.143 268.583 188.359 268.912 187.651C269.264 187.894 269.566 188.205 269.803 188.567C270.119 189.056 270.308 189.619 270.681 190.069C271.37 190.901 272.551 191.173 273.622 191.121C274.693 191.069 275.723 190.761 276.782 190.661C276.927 190.661 277.079 190.635 277.227 190.632C277.008 191.591 276.489 192.451 275.75 193.082C275.01 193.712 274.09 194.078 273.13 194.125Z" fill="black"/>
<path opacity="0.1" d="M262.364 201.476C261.782 201.504 261.2 201.415 260.652 201.213C260.104 201.011 259.601 200.7 259.17 200.297C258.74 199.895 258.392 199.41 258.145 198.87C257.898 198.329 257.758 197.744 257.732 197.148C257.697 196.437 257.828 195.728 258.114 195.08C258.482 195.326 258.803 195.638 259.062 196.002C259.407 196.501 259.621 197.073 260.01 197.533C260.759 198.388 262.016 198.689 263.15 198.66C264.285 198.63 265.305 198.359 266.398 198.274C266.128 199.168 265.596 199.955 264.874 200.528C264.153 201.101 263.276 201.432 262.364 201.476Z" fill="black"/>
<path opacity="0.1" d="M264.554 210.309C264.316 210.853 263.975 211.344 263.551 211.753C263.128 212.161 262.63 212.481 262.086 212.693C261.542 212.904 260.962 213.004 260.38 212.987C259.799 212.969 259.226 212.834 258.695 212.59C258.164 212.345 257.686 211.996 257.287 211.562C256.887 211.128 256.576 210.618 256.369 210.061C256.162 209.503 256.065 208.909 256.082 208.313C256.099 207.717 256.231 207.131 256.469 206.587C256.833 206.835 257.161 207.134 257.443 207.477C257.863 208.005 258.141 208.6 258.63 209.095C259.537 210.005 261 210.39 262.302 210.416C263.054 210.426 263.806 210.391 264.554 210.309V210.309Z" fill="black"/>
<path d="M253.482 216.993C253.482 216.993 256.98 216.883 258.035 216.113C259.09 215.342 263.406 214.423 263.681 215.66C263.956 216.896 268.941 221.81 264.989 221.829C261.036 221.848 255.808 221.182 254.756 220.534C253.704 219.887 253.482 216.993 253.482 216.993Z" fill="#656380"/>
<path opacity="0.2" d="M265.058 221.398C261.109 221.431 255.877 220.751 254.825 220.104C254.026 219.605 253.704 217.809 253.599 216.98H253.482C253.482 216.98 253.704 219.87 254.746 220.541C255.789 221.211 261.027 221.861 264.979 221.835C266.12 221.835 266.515 221.408 266.493 220.793C266.344 221.159 265.908 221.392 265.058 221.398Z" fill="black"/>
<path d="M61.4202 209.063C59.1265 204.712 61.7361 199.385 64.7185 195.507C67.7009 191.629 71.3531 187.596 71.2741 182.653C71.1604 175.552 63.8055 171.36 57.9291 167.596C53.5686 164.802 49.5462 161.489 45.9458 157.727C44.502 156.215 43.1024 154.603 42.2621 152.674C41.0489 149.897 41.0805 146.741 41.1595 143.698C41.4122 133.556 41.9008 123.433 42.6254 113.33" stroke="#3F3D56" stroke-width="0.998733" stroke-miterlimit="10"/>
<path d="M31.4494 112.777C31.5359 110.924 32.0754 109.123 33.0182 107.54C33.9611 105.956 35.2771 104.64 36.8455 103.714L39.2656 108.618L39.1929 102.681C41.3915 102.017 43.739 102.087 45.8966 102.879C48.0542 103.671 49.9102 105.146 51.1966 107.089C52.483 109.033 53.1332 111.345 53.0534 113.692C52.9735 116.039 52.1678 118.299 50.7524 120.146C49.3371 121.993 47.3854 123.331 45.1792 123.968C42.973 124.604 40.6264 124.506 38.4783 123.687C36.3302 122.868 34.4917 121.371 33.2283 119.412C31.9649 117.452 31.3419 115.132 31.4494 112.787V112.777Z" fill="#57B793"/>
<path d="M50.7274 187.729C51.8143 189.899 53.5702 191.64 55.7225 192.683C57.8748 193.725 60.3028 194.01 62.6295 193.494C64.9561 192.977 67.0511 191.688 68.5889 189.826C70.1267 187.964 71.0212 185.633 71.1335 183.197C71.209 181.665 70.969 180.135 70.429 178.704C69.6397 176.606 68.2459 174.804 66.4328 173.537C64.6198 172.271 62.4733 171.599 60.2788 171.612C58.0843 171.625 55.9456 172.322 54.1469 173.61C52.3483 174.898 50.9749 176.717 50.2093 178.824L56.9608 184.45L49.5332 182.679C49.5301 184.436 49.9397 186.168 50.7274 187.729Z" fill="#57B793"/>
<path d="M56.0637 166.229C58.7142 166.354 61.3168 165.475 63.3758 163.76C65.4349 162.046 66.8068 159.616 67.2302 156.932C67.6536 154.249 67.099 151.499 65.672 149.207C64.245 146.916 62.0453 145.241 59.4916 144.504L59.5484 149.064L57.1157 144.102H57.0873C54.2229 143.965 51.4228 145 49.3029 146.978C47.1829 148.957 45.9169 151.717 45.7832 154.651C45.6496 157.586 46.6593 160.455 48.5902 162.627C50.5211 164.799 53.2151 166.096 56.0795 166.233L56.0637 166.229Z" fill="#57B793"/>
<path d="M29.8236 148.34C31.4972 148.423 33.1668 148.107 34.7006 147.417C36.2345 146.726 37.5906 145.679 38.662 144.359C39.7334 143.039 40.4907 141.482 40.8741 139.811C41.2575 138.14 41.2565 136.401 40.8713 134.73C40.486 133.059 39.7271 131.503 38.6542 130.185C37.5814 128.866 36.2241 127.821 34.6895 127.132C33.1549 126.443 31.4849 126.128 29.8115 126.214C28.138 126.299 26.5068 126.782 25.0467 127.624L26.9423 132.988L23.0279 129.113C21.9815 130.089 21.1331 131.266 20.5314 132.578C19.9296 133.89 19.5863 135.311 19.5211 136.759C19.4709 137.783 19.5634 138.81 19.7959 139.808C20.3333 142.154 21.6032 144.257 23.413 145.797C25.2228 147.337 27.4736 148.23 29.8236 148.34V148.34Z" fill="#57B793"/>
<path opacity="0.1" d="M32.9052 115.729C35.4011 116.011 37.8274 116.804 40.3296 116.962C42.8318 117.121 45.5836 116.509 47.1664 114.515C48.0194 113.44 48.4459 112.081 49.1663 110.909C49.8488 109.817 50.7844 108.916 51.8896 108.284C52.5778 109.688 52.9668 111.225 53.0307 112.795C53.0946 114.364 52.832 115.929 52.2603 117.387C51.6886 118.844 50.8208 120.161 49.7147 121.248C48.6085 122.336 47.2892 123.17 45.8443 123.695C44.3995 124.22 42.8621 124.425 41.3342 124.295C39.8063 124.165 38.3229 123.703 36.9824 122.941C35.6419 122.179 34.4749 121.133 33.559 119.874C32.6431 118.614 31.9992 117.169 31.6699 115.635C32.0901 115.654 32.5008 115.684 32.9052 115.729Z" fill="black"/>
<path opacity="0.1" d="M29.8236 148.34C31.6865 148.428 33.5399 148.021 35.204 147.159C36.8681 146.296 38.2864 145.008 39.3212 143.418C40.356 141.829 40.9721 139.992 41.1099 138.087C41.2476 136.182 40.9022 134.272 40.1073 132.544C39.249 133.135 38.5108 133.892 37.9336 134.771C37.1628 135.962 36.6983 137.338 35.7916 138.432C34.1077 140.458 31.2327 141.122 28.6231 141.002C26.0135 140.882 23.4955 140.118 20.8986 139.875C20.5384 139.843 20.1719 139.817 19.8086 139.807C20.3453 142.152 21.6134 144.253 23.4207 145.793C25.2279 147.333 27.4758 148.227 29.8236 148.34V148.34Z" fill="black"/>
<path opacity="0.1" d="M56.065 166.23C57.9097 166.319 59.7458 165.922 61.3982 165.077C63.0505 164.232 64.4641 162.968 65.5039 161.404C66.5437 159.84 67.1752 158.03 67.338 156.145C67.5008 154.261 67.1895 152.365 66.4339 150.638C65.5437 151.244 64.7695 152.012 64.1497 152.904C63.3093 154.118 62.7849 155.516 61.8023 156.636C59.9794 158.717 56.9148 159.452 54.1504 159.384C51.4745 159.326 48.8965 158.653 46.2363 158.442C46.8949 160.618 48.1918 162.533 49.9505 163.926C51.7091 165.32 53.8442 166.124 56.065 166.23V166.23Z" fill="black"/>
<path opacity="0.1" d="M50.7285 187.729C51.8154 189.899 53.5713 191.641 55.7236 192.683C57.8759 193.726 60.3039 194.011 62.6306 193.494C64.9572 192.977 67.0522 191.688 68.59 189.826C70.1278 187.964 71.0223 185.634 71.1346 183.197C71.2101 181.666 70.97 180.135 70.4301 178.705C69.5407 179.303 68.7422 180.033 68.0606 180.87C67.0338 182.165 66.3546 183.608 65.1666 184.806C62.9551 187.026 59.3882 187.946 56.2131 188.043C54.3805 188.049 52.5491 187.944 50.7285 187.729V187.729Z" fill="black"/>
<path d="M136.237 215.53L94.5335 224.269L93.5857 224.172L56.9375 220.385V172.804L101.8 165.035L134.341 168.919L134.35 169.13L134.354 169.233L136.237 215.53Z" fill="#4E0D4E"/>
<path opacity="0.05" d="M134.354 169.233L134.341 169.243L93.5857 175.393L56.9375 172.804L101.8 165.035L134.341 168.919L134.35 169.13L134.354 169.233Z" fill="black"/>
<path opacity="0.5" d="M136.237 215.53L94.5337 224.27L93.5859 224.173V175.394L134.351 169.13L136.237 215.53Z" fill="#3A0A3A"/>
<path d="M182.045 217.472L140.342 226.212L139.394 226.115L102.746 222.327V174.746L147.609 166.978L180.15 170.862L180.159 171.072L180.162 171.176L182.045 217.472Z" fill="#3F3D56"/>
<path opacity="0.1" d="M182.045 217.472L140.342 226.212L139.395 226.115V177.336L180.159 171.072L182.045 217.472Z" fill="#EFEFEF"/>
<path opacity="0.05" d="M180.162 171.176L180.15 171.185L139.394 177.335L102.746 174.746L147.608 166.978L180.15 170.862L180.159 171.072L180.162 171.176Z" fill="black"/>
<path d="M153.297 170.862L111.594 179.601L110.646 179.504L73.998 175.717V128.136L118.86 120.367L151.402 124.251L151.411 124.462L151.414 124.565L153.297 170.862Z" fill="#3F3D56"/>
<path opacity="0.1" d="M153.295 170.861L111.592 179.601L110.645 179.504V130.725L151.409 124.461L153.295 170.861Z" fill="black"/>
<path opacity="0.05" d="M151.414 124.565L151.401 124.575L110.646 130.725L73.998 128.136L118.86 120.367L151.401 124.251L151.411 124.462L151.414 124.565Z" fill="black"/>
<path d="M176.991 172.855L155.226 177.419L154.73 177.367L135.604 175.39V150.557L159.017 146.501L176.002 148.53L176.008 148.641V148.692L176.991 172.855Z" fill="#3F3D56"/>
<path opacity="0.1" d="M176.991 172.856L155.226 177.42L154.73 177.368V151.91L176.008 148.641L176.991 172.856Z" fill="black"/>
<path opacity="0.05" d="M176.008 148.692L176.002 148.699L154.73 151.91L135.604 150.557L159.017 146.501L176.002 148.53L176.008 148.641V148.692Z" fill="black"/>
<path d="M118.545 124.626L96.7808 129.187L96.2848 129.138L77.1582 127.161V102.328L100.572 98.272L117.556 100.301L117.563 100.412V100.463L118.545 124.626Z" fill="#3F3D56"/>
<path opacity="0.1" d="M118.544 124.627L96.7792 129.188L96.2832 129.139V103.681L117.561 100.412L118.544 124.627Z" fill="black"/>
<path opacity="0.05" d="M117.563 100.463L117.556 100.47L96.2848 103.681L77.1582 102.328L100.572 98.272L117.556 100.301L117.563 100.412V100.463Z" fill="black"/>
<path d="M156.77 123.656L135.005 128.216L134.509 128.168L115.383 126.19V101.357L138.797 97.3013L155.781 99.3308L155.787 99.4408V99.4926L156.77 123.656Z" fill="#4E0D4E"/>
<path opacity="0.1" d="M156.772 123.655L135.008 128.216L134.512 128.167V102.71L155.79 99.4404L156.772 123.655Z" fill="black"/>
<path opacity="0.05" d="M155.787 99.4926L155.781 99.4991L134.509 102.71L115.383 101.357L138.797 97.3013L155.781 99.3308L155.787 99.4408V99.4926Z" fill="black"/>
<path d="M168.145 98.7318L146.38 103.292L145.884 103.244L126.758 101.266V76.4332L150.172 72.3774L167.156 74.4069L167.162 74.517V74.5688L168.145 98.7318Z" fill="#3F3D56"/>
<path opacity="0.1" d="M168.145 98.7323L146.381 103.293L145.885 103.244V77.7868L167.163 74.5176L168.145 98.7323Z" fill="black"/>
<path opacity="0.05" d="M167.162 74.5688L167.156 74.5753L145.884 77.7862L126.758 76.4332L150.172 72.3774L167.156 74.4069L167.162 74.517V74.5688Z" fill="black"/>
<path d="M182.967 47.9656C182.737 50.0696 181.17 51.7657 180.588 53.7919C179.717 56.8507 181.22 60.1361 183.293 62.5314C184.963 64.4346 186.985 65.9793 189.243 67.0761C191.5 68.1729 193.947 68.7999 196.442 68.9209C197.175 68.9855 197.913 68.9031 198.616 68.6781C199.241 68.4174 199.804 68.0222 200.268 67.5194C201.822 65.9171 202.66 63.6999 202.991 61.4632C203.323 59.2266 203.197 56.9511 203.067 54.695C203.067 54.2281 202.983 53.7652 202.821 53.3291C202.609 52.9143 202.318 52.5477 201.964 52.2512C200.844 51.1962 199.609 50.2763 198.284 49.5096C197.715 49.1859 197.105 48.8622 196.742 48.3023C196.493 47.8563 196.331 47.3649 196.265 46.8554L195.858 44.732C195.785 44.1198 195.581 43.5316 195.26 43.01C194.543 42.0196 193.169 41.8836 191.965 41.8351L187.542 41.657C186.168 41.602 184.361 41.1974 183.018 41.4758C181.754 41.7315 182.181 42.9162 182.408 43.9908C182.737 45.2905 182.925 46.6236 182.967 47.9656V47.9656Z" fill="#FFC0C6"/>
<path opacity="0.1" d="M182.967 47.9656C182.737 50.0696 181.17 51.7657 180.588 53.7919C179.717 56.8507 181.22 60.1361 183.293 62.5314C184.963 64.4346 186.985 65.9793 189.243 67.0761C191.5 68.1729 193.947 68.7999 196.442 68.9209C197.175 68.9855 197.913 68.9031 198.616 68.6781C199.241 68.4174 199.804 68.0222 200.268 67.5194C201.822 65.9171 202.66 63.6999 202.991 61.4632C203.323 59.2266 203.197 56.9511 203.067 54.695C203.067 54.2281 202.983 53.7652 202.821 53.3291C202.609 52.9143 202.318 52.5477 201.964 52.2512C200.844 51.1962 199.609 50.2763 198.284 49.5096C197.715 49.1859 197.105 48.8622 196.742 48.3023C196.493 47.8563 196.331 47.3649 196.265 46.8554L195.858 44.732C195.785 44.1198 195.581 43.5316 195.26 43.01C194.543 42.0196 193.169 41.8836 191.965 41.8351L187.542 41.657C186.168 41.602 184.361 41.1974 183.018 41.4758C181.754 41.7315 182.181 42.9162 182.408 43.9908C182.737 45.2905 182.925 46.6236 182.967 47.9656V47.9656Z" fill="black"/>
<path d="M211.06 142.727L209.183 163.805C208.693 169.334 208.194 174.885 207.234 180.342C206.918 182.223 206.513 184.094 206.052 185.949C204.769 191.098 202.908 196.132 202.308 201.411C202.289 201.563 202.273 201.735 202.258 201.874C202.134 203.039 202.027 204.217 201.626 205.305C201.31 206.111 200.864 206.846 200.539 207.642C199.907 209.234 199.806 210.995 199.727 212.721C197.45 211.403 194.956 210.526 192.369 210.131C191.105 209.94 189.731 209.807 188.894 208.836C187.946 207.781 188.057 206.166 188.214 204.748C188.712 200.346 189.207 195.946 189.699 191.548C189.864 189.656 190.181 187.781 190.647 185.942C190.818 185.33 191.023 184.728 191.232 184.126C191.519 183.298 191.81 182.469 192.028 181.618C192.33 180.25 192.539 178.862 192.653 177.465C193.162 173.037 193.775 168.619 194.312 164.194L194.34 163.961C195.146 157.254 195.759 150.515 195.582 143.76C195.557 142.76 195.516 141.759 195.452 140.756C195.364 139.303 195.234 138.532 196.4 137.623C197.699 136.619 199.408 135.917 200.893 135.26C201.692 134.904 210.494 131.699 210.687 132.405C211.095 133.904 211.308 135.451 211.319 137.008C211.336 138.918 211.25 140.827 211.06 142.727V142.727Z" fill="#605D82"/>
<path opacity="0.1" d="M207.231 180.342C206.915 182.223 206.51 184.094 206.049 185.948C204.767 191.098 202.906 196.131 202.305 201.411C202.286 201.563 202.271 201.734 202.255 201.874C198.331 196.131 195.026 189.956 191.197 184.152C191.485 183.323 191.775 182.495 191.993 181.643C192.308 180.268 192.527 178.872 192.651 177.465C193.159 173.037 193.772 168.618 194.309 164.194L194.338 163.96C194.559 164.899 194.877 165.812 195.285 166.683C197.857 172.036 203.967 174.742 206.956 179.866C207.055 180.026 207.147 180.185 207.231 180.342Z" fill="black"/>
<path d="M175.394 133.272C175.524 137.564 176.194 141.821 176.864 146.061L178.244 154.801C178.999 159.591 179.789 164.475 182.001 168.764C183.656 171.975 186.038 174.714 188.196 177.591C193.497 184.667 197.481 192.684 202.508 199.967C203.971 202.084 206.059 204.376 208.552 203.932C210.188 203.644 211.376 202.246 212.659 201.171C214.175 199.903 216.001 198.974 217.195 197.381C218.39 195.789 218.624 193.147 217.006 192.014C216.453 191.629 215.78 191.484 215.155 191.238C212.649 190.267 211.025 187.755 209.995 185.217C208.965 182.679 208.337 179.957 206.962 177.598C203.974 172.474 197.86 169.768 195.289 164.411C193.848 161.413 193.709 157.937 193.602 154.613L193.32 146.097C193.289 145.164 193.267 144.197 193.636 143.345C194.619 141.08 197.589 140.866 199.996 140.578C202.726 140.251 205.371 139.397 207.79 138.06C209.177 137.292 210.529 136.315 211.265 134.891C211.942 133.596 212.033 132.071 212.112 130.602L212.946 115.165C213.019 113.838 213.082 112.463 212.63 111.22C211.483 108.093 207.629 107.07 204.372 107.219C198.312 107.497 192.72 110.168 186.996 111.974C185.577 112.421 184.152 112.822 182.689 113.123C181.426 113.385 179.846 113.278 178.633 113.699C176.459 114.45 176.513 119.325 176.206 121.345C175.574 125.286 175.302 129.279 175.394 133.272V133.272Z" fill="#605D82"/>
<path d="M207.728 204.586C208.262 205.14 208.436 205.949 208.575 206.713C209.347 210.952 209.749 215.254 209.775 219.566C209.741 219.968 209.818 220.373 210 220.731C210.151 220.944 210.355 221.112 210.59 221.217C212.135 221.971 213.927 220.919 215.216 219.764C217.601 217.624 219.62 214.75 219.756 211.503C219.79 210.668 219.699 209.823 219.841 208.998C220.049 207.774 220.748 206.709 221.361 205.641C222.409 203.821 223.257 201.886 223.888 199.873C224.122 199.116 224.28 198.164 223.698 197.637C223.495 197.471 223.262 197.347 223.013 197.271L216.031 194.617C215.424 194.387 213.92 198.345 213.683 198.779C213.099 199.838 212.518 200.436 211.345 200.682C210.173 200.928 208.726 200.572 207.608 201.184C205.712 202.217 206.657 203.482 207.728 204.586Z" fill="#535070"/>
<path d="M196.96 207.03C196.83 206.766 196.65 206.531 196.429 206.341C196.106 206.13 195.739 206.002 195.358 205.968C194.031 205.735 192.458 205.583 191.538 206.596C190.679 207.545 190.827 209.089 190.11 210.157C189.883 210.48 189.573 210.772 189.377 211.128C189.134 211.673 189.025 212.271 189.061 212.869C189.023 214.517 188.986 216.171 189.099 217.815C189.191 219.194 189.415 220.641 190.259 221.722C191.611 223.457 194.05 223.706 196.211 223.816L197.964 223.91C198.446 223.968 198.935 223.922 199.399 223.774C199.686 223.639 199.944 223.445 200.157 223.206C200.369 222.966 200.533 222.685 200.637 222.379C201.55 220.055 200.106 217.553 199.215 215.222C198.189 212.539 198.372 209.564 196.96 207.03Z" fill="#535070"/>
<path d="M182.463 36.1025C182.441 35.8669 182.475 35.6293 182.561 35.4099C182.817 34.947 183.487 35.0862 183.992 35.2027C186.024 35.7271 188.166 35.2513 190.261 35.3743C192.355 35.4973 194.712 36.5687 195.132 38.6726C196.652 37.5708 197.962 36.1928 198.996 34.6071C199.577 33.717 200.083 32.6974 200.004 31.6292C199.89 30.0885 198.63 28.9362 197.476 27.9587L194.001 25.0455C193.543 24.6153 193.015 24.2712 192.441 24.0291C191.638 23.7475 190.76 23.8835 189.913 23.8835C187.386 23.8835 184.675 22.702 182.422 23.8835C181.474 24.3787 180.77 25.23 180.088 26.0586L176.982 29.8263C176.747 30.0665 176.575 30.3638 176.483 30.6906C176.394 31.1502 176.625 31.6033 176.707 32.0662C176.852 32.9078 176.499 33.8076 176.77 34.6168C177.222 35.9569 178.814 36.1479 179.787 36.9182C180.148 37.2031 180.716 38.1774 181.149 38.1644C181.91 38.1482 182.441 36.724 182.463 36.1025Z" fill="#3F3D56"/>
<path d="M187.733 47.2143C193.229 47.2143 197.685 42.6494 197.685 37.0183C197.685 31.3872 193.229 26.8223 187.733 26.8223C182.237 26.8223 177.781 31.3872 177.781 37.0183C177.781 42.6494 182.237 47.2143 187.733 47.2143Z" fill="#FFC0C6"/>
<path d="M190.064 59.3298C189.727 58.3416 189.092 57.4887 188.251 56.8941C187.41 56.2995 186.407 55.994 185.385 56.0218C185.092 56.0791 184.789 56.0394 184.52 55.9085C184.367 55.789 184.244 55.6336 184.163 55.4553C183.559 54.3394 183.073 53.1611 182.712 51.9401C182.554 51.3996 182.336 50.7619 181.802 50.6227C181.373 50.5095 180.934 50.7943 180.646 51.1406C180.391 51.5123 180.115 51.8679 179.818 52.2056C178.555 53.3514 176.343 52.3059 175.019 53.3579C174.801 53.5294 174.621 53.7495 174.388 53.9081C174.16 54.0501 173.914 54.1591 173.658 54.2318C171.088 55.0883 168.569 56.0967 166.113 57.2518C166.998 62.7026 167.901 68.257 169.974 73.3551C170.96 75.7827 172.075 78.1618 172.865 80.6638C174.615 86.2085 174.691 92.1417 174.713 97.9712C174.713 101.959 174.713 106.031 173.449 109.805C173.165 110.66 172.817 111.508 172.738 112.395C172.659 113.281 172.918 114.285 173.629 114.816C174.041 115.094 174.513 115.264 175.004 115.311C177.187 115.635 179.386 115.046 181.534 114.534C187.293 113.168 193.17 112.385 199.03 111.621L208.856 110.326C209.561 110.276 210.25 110.092 210.89 109.786C212.688 108.779 212.859 106.008 211.74 104.247C211.206 103.403 210.451 102.71 209.999 101.817C209.548 100.923 209.513 99.6673 210.287 99.0491C211.867 97.7867 211.393 95.4465 211.469 93.4008C211.679 87.6781 211.651 81.9597 211.383 76.2456C211.303 75.0606 211.284 73.8721 211.326 72.685C211.437 70.6717 211.923 68.7005 212.41 66.7422L215.396 54.7012C214.615 53.4388 213.121 52.6361 211.709 52.2735C210.296 51.911 208.821 51.8042 207.428 51.3607C204.584 50.4544 202.032 48.1563 199.052 48.3699C198.826 48.374 198.604 48.4293 198.402 48.5317C197.732 48.9234 197.836 49.9139 197.795 50.7037C197.7 52.4548 196.443 53.9146 195.059 54.9407C193.675 55.9668 192.089 56.7112 190.816 57.8797C190.595 58.0505 190.413 58.2688 190.283 58.5194C190.153 58.7699 190.078 59.0465 190.064 59.3298V59.3298Z" fill="#3F3D56"/>
<path d="M150.633 70.7524C149.974 71.1915 149.273 71.5613 148.542 71.8562C147.847 72.1378 147.104 72.3611 146.536 72.8531C146.254 73.1034 146.018 73.4025 145.837 73.7368C145.501 74.3489 145.331 75.0423 145.345 75.7447C145.359 76.4471 145.556 77.1328 145.917 77.7303C146.278 78.3277 146.789 78.8151 147.396 79.1414C148.003 79.4678 148.685 79.6212 149.37 79.5858C150.283 79.5372 151.145 79.1585 151.982 78.7863L159.002 75.6562C160.19 75.1286 161.473 74.5136 162.035 73.316C162.1 73.2039 162.124 73.0723 162.105 72.9438C162.05 72.8027 161.947 72.6873 161.814 72.6201C160.232 71.5656 158.848 70.228 157.729 68.6711C157.442 68.2698 157.097 67.3246 156.68 67.0819C155.195 66.237 151.824 69.9626 150.633 70.7524Z" fill="#FFC0C6"/>
<path d="M225.673 68.2119L228.261 71.2416C228.817 71.889 229.373 72.5363 229.878 73.2355C231.122 74.9907 232.12 76.9159 232.842 78.955C233.404 80.4666 233.871 82.0785 233.676 83.684C233.544 84.5071 233.327 85.3134 233.028 86.089C232.554 87.58 231.965 89.0303 231.268 90.4263C230.686 91.4856 230.028 92.4993 229.3 93.4592C227.296 96.18 225.103 98.7491 222.738 101.147C221.853 102.043 221.474 103.497 221.098 104.707C220.387 106.944 218.697 108.689 217.064 110.339C216.539 110.908 215.957 111.42 215.329 111.867C214.389 112.489 213.289 112.809 212.17 112.786C211.682 112.789 211.198 112.687 210.752 112.485C209.633 111.942 209.064 110.618 208.948 109.355C208.844 108.208 209.031 107.053 209.491 106.002C210.976 102.632 214.789 101.173 217.484 98.7126C219.064 97.2722 220.274 95.4596 221.468 93.6696C222.277 92.5508 222.952 91.337 223.48 90.0541C224.081 88.4065 223.847 86.458 224.375 84.7878C224.596 84.0789 225.006 83.4412 225.231 82.7388C225.455 82.0364 225.531 81.2046 225.111 80.5993C224.796 80.2123 224.393 79.9101 223.939 79.7189C222.217 78.8255 220.29 77.6732 219.961 75.7214C219.829 74.6405 220.105 73.5489 220.732 72.669C221.355 71.8004 222.085 71.0172 222.902 70.3385C223.651 69.6458 224.918 68.8787 225.673 68.2119Z" fill="#FFC0C6"/>
<path d="M148.971 74.9802C148.516 74.035 147.944 73.0704 147.021 72.6011C146.572 72.4027 146.089 72.3003 145.6 72.3003C145.111 72.3003 144.627 72.4027 144.178 72.6011C143.284 72.9971 142.447 73.5154 141.688 74.1418L139.458 75.8282C138.952 76.1682 138.505 76.5914 138.134 77.0809C137.78 77.6747 137.546 78.335 137.445 79.023C137.13 80.5993 136.874 82.221 137.095 83.8167C137.449 86.4062 138.965 88.6461 140.633 90.6141C141.676 91.8376 142.965 93.0741 144.551 93.1291C145.236 93.1518 145.998 92.8734 146.282 92.2357C146.381 91.9824 146.434 91.7124 146.437 91.4395C146.608 88.5652 145.603 85.7588 144.434 83.1402C144.118 82.4281 143.777 81.6901 143.802 80.9101C143.792 80.7776 143.826 80.6456 143.897 80.5346C143.997 80.4269 144.131 80.3592 144.276 80.3436C145.878 80.0199 148.639 81.2952 149.761 79.4729C150.487 78.2688 149.489 76.0516 148.971 74.9802Z" fill="#FFC0C6"/>
<path d="M181.939 32.8945C181.92 32.6587 181.954 32.4214 182.041 32.2019C182.296 31.7358 182.966 31.8782 183.472 31.9947C185.503 32.5191 187.645 32.0433 189.74 32.1663C191.835 32.2893 194.188 33.3606 194.612 35.4646C196.13 34.361 197.439 32.9834 198.475 31.3991C199.057 30.5058 199.562 29.4862 199.483 28.418C199.369 26.8773 198.106 25.7249 196.956 24.7507L193.481 21.8375C193.024 21.4073 192.497 21.0632 191.923 20.8211C191.117 20.5395 190.242 20.6755 189.395 20.6755C186.868 20.6755 184.157 19.494 181.905 20.6755C180.957 21.1707 180.252 22.022 179.57 22.8506L176.461 26.6183C176.227 26.859 176.057 27.1563 175.965 27.4825C175.877 27.9422 176.107 28.3953 176.19 28.8582C176.335 29.6998 175.981 30.5996 176.253 31.4056C176.704 32.7489 178.297 32.9399 179.27 33.7102C179.63 33.9951 180.199 34.9694 180.632 34.9564C181.38 34.9402 181.911 33.516 181.939 32.8945Z" fill="#3F3D56"/>
<path d="M160.803 60.8349C160.402 61.1017 160.05 61.438 159.761 61.8286C159.398 62.395 159.322 63.1233 159.009 63.706C158.339 64.9813 156.769 65.4377 155.793 66.4832C155.635 66.6261 155.524 66.8163 155.477 67.027C155.471 67.3117 155.564 67.5893 155.739 67.8103L160.459 75.4104C162.039 75.5528 163.536 74.5429 165.11 74.6788C165.694 74.7274 166.298 74.9346 166.86 74.7565C167.262 74.5731 167.639 74.337 167.981 74.0541C168.929 73.4456 170.168 73.3744 170.954 72.5749C171.741 71.7754 171.807 70.6004 171.798 69.5096C171.812 68.5629 171.718 67.6177 171.517 66.6936C170.822 63.7804 168.645 61.534 167.28 58.951C166.613 57.6919 166.253 56.9572 164.847 57.8214C163.441 58.6856 162.134 59.8379 160.803 60.8349Z" fill="#3F3D56"/>
<path d="M218.116 56.9929C219.003 57.583 219.803 58.3002 220.492 59.1227C221.209 60.0711 221.617 61.2364 222.309 62.2074C223 63.1785 223.888 63.8776 224.647 64.7451C225.8 66.0593 226.58 67.6583 227.345 69.2475C225.473 71.7425 223.433 74.1003 221.241 76.3038C220.996 76.5985 220.674 76.8144 220.312 76.9253C220.067 76.9523 219.819 76.9165 219.591 76.821C219.362 76.7255 219.161 76.5734 219.004 76.3783C218.663 76.0158 218.423 75.5626 218.097 75.1839C217.331 74.3738 216.309 73.8681 215.213 73.7565C214.126 73.648 213.032 73.6318 211.943 73.7079C211.704 73.737 211.461 73.6954 211.245 73.5881C211.083 73.4746 210.953 73.3209 210.866 73.1415C209.602 70.9145 209.997 68.1179 210.448 65.5737L211.482 59.7474C211.632 58.635 211.922 57.5472 212.344 56.5106C212.736 55.6528 213.608 54.1963 214.688 54.4552C215.769 54.7141 217.203 56.3196 218.116 56.9929Z" fill="#3F3D56"/>
<path d="M128.022 99.7029L106.257 104.264L105.761 104.215L86.6348 102.237V77.4044L110.048 73.3486L127.033 75.3781L127.039 75.4882V75.54L128.022 99.7029Z" fill="#4E0D4E"/>
<path opacity="0.1" d="M128.022 99.7031L106.258 104.264L105.762 104.215V78.7575L127.04 75.4883L128.022 99.7031Z" fill="black"/>
<path opacity="0.05" d="M127.039 75.54L127.033 75.5464L105.761 78.7574L86.6348 77.4044L110.049 73.3486L127.033 75.3781L127.039 75.4882V75.54Z" fill="black"/>
<path d="M139.395 75.1034L117.63 79.6673L117.134 79.6155L98.0078 77.6378V52.8048L121.422 48.749L138.406 50.7785L138.412 50.8886V50.9404L139.395 75.1034Z" fill="#3F3D56"/>
<path opacity="0.1" d="M139.395 75.103L117.631 79.6669L117.135 79.6151V54.1574L138.413 50.8882L139.395 75.103Z" fill="black"/>
<path opacity="0.05" d="M138.412 50.9404L138.406 50.9468L117.134 54.1578L98.0078 52.8048L121.422 48.749L138.406 50.7785L138.412 50.8886V50.9404Z" fill="black"/>
</g>
<defs>
<clipPath id="clip0">
<rect width="300" height="227.76" fill="white" transform="translate(0 0.620117)"/>
</clipPath>
</defs>
</svg>
