/* XPM */
static char * icon_xpm[] = {
"80 80 174 2",
"  	c None",
". 	c #4E0D4E",
"+ 	c #531453",
"@ 	c #581B58",
"# 	c #673067",
"$ 	c #906890",
"% 	c #B397B3",
"& 	c #CFBECF",
"* 	c #E0D5E0",
"= 	c #F0EBF0",
"- 	c #FCFCFC",
"; 	c #4F0E4F",
"> 	c #6E396E",
", 	c #8F668F",
"' 	c #C1AAC1",
") 	c #EFE9EF",
"! 	c #FFFFFF",
"~ 	c #865986",
"{ 	c #C5B0C5",
"] 	c #EAE2EA",
"^ 	c #764476",
"/ 	c #DFD4DF",
"( 	c #FAF9FA",
"_ 	c #5E235E",
": 	c #BDA5BD",
"< 	c #885C88",
"[ 	c #E8DFE8",
"} 	c #521352",
"| 	c #B89EB8",
"1 	c #FCFBFC",
"2 	c #5B1F5B",
"3 	c #4D0C4D",
"4 	c #571A57",
"5 	c #5D225D",
"6 	c #D8C9D8",
"7 	c #612761",
"8 	c #D4C4D4",
"9 	c #D4C5D4",
"0 	c #4E0C4E",
"a 	c #632A63",
"b 	c #DDD1DD",
"c 	c #693269",
"d 	c #DED3DE",
"e 	c #FDFCFD",
"f 	c #F6F3F6",
"g 	c #D7C9D7",
"h 	c #A482A4",
"i 	c #7E4E7E",
"j 	c #652D65",
"k 	c #521252",
"l 	c #490649",
"m 	c #4B094B",
"n 	c #662E66",
"o 	c #D9CCD9",
"p 	c #DCD0DC",
"q 	c #A584A5",
"r 	c #622862",
"s 	c #440044",
"t 	c #470447",
"u 	c #4A084A",
"v 	c #4C0A4C",
"w 	c #825482",
"x 	c #6F3A6F",
"y 	c #4D0B4D",
"z 	c #642B64",
"A 	c #DBCFDB",
"B 	c #F7F3F7",
"C 	c #9B779B",
"D 	c #835683",
"E 	c #E5DBE5",
"F 	c #E4DAE4",
"G 	c #E8E0E8",
"H 	c #713C71",
"I 	c #4C0B4C",
"J 	c #8C628C",
"K 	c #E2D9E2",
"L 	c #672F67",
"M 	c #6D386D",
"N 	c #E7DFE7",
"O 	c #622962",
"P 	c #926A92",
"Q 	c #FAF8FA",
"R 	c #E2D7E2",
"S 	c #6C376C",
"T 	c #4A074A",
"U 	c #6B346B",
"V 	c #CCBACC",
"W 	c #875C87",
"X 	c #F9F7F9",
"Y 	c #7B4C7B",
"Z 	c #DED4DE",
"` 	c #5B1E5B",
" .	c #855885",
"..	c #DDD2DD",
"+.	c #895E89",
"@.	c #DBCEDB",
"#.	c #4B084B",
"$.	c #7F507F",
"%.	c #F7F4F7",
"&.	c #5F245F",
"*.	c #764576",
"=.	c #551755",
"-.	c #FEFEFE",
";.	c #D7CAD7",
">.	c #5C205C",
",.	c #815381",
"'.	c #F3EEF3",
").	c #774577",
"!.	c #F4F0F4",
"~.	c #D3C3D3",
"{.	c #591C59",
"].	c #703C70",
"^.	c #FEFDFE",
"/.	c #D3C4D3",
"(.	c #511051",
"_.	c #501150",
":.	c #B093B0",
"<.	c #B59AB5",
"[.	c #FDFDFD",
"}.	c #B79CB7",
"|.	c #B599B5",
"1.	c #895F89",
"2.	c #734073",
"3.	c #987298",
"4.	c #9A759A",
"5.	c #8A608A",
"6.	c #511251",
"7.	c #602660",
"8.	c #CEBCCE",
"9.	c #F1ECF1",
"0.	c #855985",
"a.	c #5E225E",
"b.	c #784778",
"c.	c #DED1DE",
"d.	c #F3EFF3",
"e.	c #7F517F",
"f.	c #F5F1F5",
"g.	c #470347",
"h.	c #5D215D",
"i.	c #F3F0F3",
"j.	c #865B86",
"k.	c #450145",
"l.	c #D6C7D6",
"m.	c #F4F1F4",
"n.	c #805280",
"o.	c #E6DCE6",
"p.	c #885D88",
"q.	c #5C215C",
"r.	c #E6DDE6",
"s.	c #F8F6F8",
"t.	c #936C93",
"u.	c #460246",
"v.	c #DACDDA",
"w.	c #F6F4F6",
"x.	c #8E658E",
"y.	c #450045",
"z.	c #5E245E",
"A.	c #642C64",
"B.	c #DED2DE",
"C.	c #F7F5F7",
"D.	c #EEE7EE",
"E.	c #EDE6ED",
"F.	c #916991",
"G.	c #ECE5EC",
"H.	c #FBF9FB",
"I.	c #6A336A",
"J.	c #662F66",
"K.	c #FBFAFB",
"L.	c #956F95",
"M.	c #E9E1E9",
"N.	c #DACCDA",
"O.	c #541654",
"P.	c #BAA1BA",
"Q.	c #4E0E4E",
"                                                                    . . . . . . . . . . . .                                                                     ",
"                                                            . . . . . . . . . . . . . . . . . . . .                                                             ",
"                                                    . . . . . . . . . . . . . . . . . . . . . . . . . . . .                                                     ",
"                                                . . . . . . . . . . . . . . . . . . . . . . . . . . . . . . . .                                                 ",
"                                            . . . . . . . . . . . . . . . . . . . . . . . . . . . . . . . . . . . .                                             ",
"                                        . . . . . . . . . . . . . . . . . . . . . . . . . . . . . . . . . . . . . . . .                                         ",
"                                    . . . . . . . . . . . . . . . . . . . . . . . . . . . . . . . . . . . . . . . . . . . .                                     ",
"                                  . . . . . . . . . . . . . . . . . . . . . . . . . . . . . . . . . . . . . . . . . . . . . .                                   ",
"                              . . . . . . . . . . . . . . . . . . . . . . . . . . . . . . . . . . . . . . . . . . . . . . . . . .                               ",
"                            . . . . . . . . . . . . . . . . . . . . . . . . . . . . . . . . . . . . . . . . . . . . . . . . . . . .                             ",
"                          . . . . . . . . . . . . . . . . . . + @ # $ % & * = - - = * & % $ # @ + . . . . . . . . . . . . . . . . . .                           ",
"                        . . . . . . . . . . . . . . . . ; > , ' ) ! ! ! ! ! ! ! ! ! ! ! ! ! ! ) ' , > ; . . . . . . . . . . . . . . . .                         ",
"                      . . . . . . . . . . . . . . . . ~ { ] ! ! ! ! ! ! ! ! ! ! ! ! ! ! ! ! ! ! ! ! ] { ~ . . . . . . . . . . . . . . . .                       ",
"                    . . . . . . . . . . . . . . . ^ / ( ! ! ! ! ! ! ! ! ! ! ! ! ! ! ! ! ! ! ! ! ! ! ! ! ( / ^ . . . . . . . . . . . . . . .                     ",
"                  . . . . . . . . . . . . . . _ : ! ! ! ! ! ! ! ! ! ! ! ! ! ! ! ! ! ! ! ! ! ! ! ! ! ! ! ! ! ! : _ . . . . . . . . . . . . . .                   ",
"                . . . . . . . . . . . . . . < [ ! ! ! ! ! ! ! ! ! ! ! ! ! ! ! ! ! ! ! ! ! ! ! ! ! ! ! ! ! ! ! ! [ < . . . . . . . . . . . . . .                 ",
"                . . . . . . . . . . . . } | 1 ! ! ! ! ! ! ! ! ! ! ! ! ! ! ! ! ! ! ! ! ! ! ! ! ! ! ! ! ! ! ! ! ! ! 1 | } . . . . . . . . . . . .                 ",
"              . . . . . . . . . . . . 2 & ! ! ! ! ! ! ! ! ! ! ! ! ! ! ! ! ! ! ! ! ! ! ! ! ! ! ! ! ! ! ! ! ! ! ! ! ! ! & 2 . . . . . . . . . . . .               ",
"            . . . . . . . . . . . . 2 & ! ! ! ! ! ! ! ! ! ! ! ! ! ! ! ! ! ! ! ! ! ! ! ! ! ! ! ! ! ! ! ! ! ! ! ! ! ! ! ! & 2 . . . . . . . . . . . .             ",
"            . . . . . . . . . 3 3 4 & ! ! ! ! ! ! ! ! ! ! ! ! ! ! ! ! ! ! ! ! ! ! ! ! ! ! ! ! ! ! ! ! ! ! ! ! ! ! ! ! ! ! & 2 . . . . . . . . . . .             ",
"          . . . . . . . . . . . . 5 6 ! ! ! ! ! ! ! ! ! ! ! ! ! ! ! ! ! ! ! ! ! ! ! ! ! ! ! ! ! ! ! ! ! ! ! ! ! ! ! ! ! ! ! & } . . . . . . . . . . .           ",
"          . . . . . . . . . . . . . 7 8 ! ! ! ! ! ! ! ! ! ! ! ! ! ! ! ! ! ! ! ! ! ! ! ! ! ! ! ! ! ! ! ! ! ! ! ! ! ! ! ! ! ! ! | . . . . . . . . . . .           ",
"        . . . . . . . . . . . . . . . _ 9 ! ! ! ! ! ! ! ! ! ! ! ! ! ! ! ! ! ! ! ! ! ! ! ! ! ! ! ! ! ! ! ! ! ! ! ! ! ! ! ! ! ! 1 < . . . . . . . . . . .         ",
"        . . . . . . . 3 0 . . . . . . . a b ! ! ! ! ! ! ! ! ! ! ! ! ! ! ! ! ! ! ! ! ! ! ! ! ! ! ! ! ! ! ! ! ! ! ! ! ! ! ! ! ! ! [ _ . . . . . . . . . .         ",
"      . . . . . . . . 0 . . . . . . . . . c d ! ! ! ! ! ! ! ! ! ! e f g h i j k k j i h g f e ! ! ! ! ! ! ! ! ! ! ! ! ! ! ! ! ! ! : . . . . . . . . . . .       ",
"      . . . . . . . . . . . . . l m . . . . n o ! ! ! ! ! ! ! ! p q r s t u v . . v u t s r q p ! ! ! ! ! ! ! ! ! ! ! ! ! ! ! ! ! ! ^ . . . . . . . . . .       ",
"    . . . . . . . . . . . . . 3 w x y . . . . z A ! ! ! ! ! B C 7 t v . . . . . . . . . . v t 7 C B ! ! ! ! ! ! ! ! ! ! ! ! ! ! ! ! / . . . . . . . . . . .     ",
"    . . . . . 3 0 . . . . . y D ! E 7 3 . . . . c F ! ! ! G H ; 3 . . . . . . . . . . . . . . 3 ; H G ! ! ! ! ! ! ! ! ! ! ! ! ! ! ! ( ~ . . . . . . . . . .     ",
"    . . . . . 0 . . . . 3 I J ! ! ! K L l . . . . M E ! N O u . . . . . . . . . . . . . . . . . . u O N ! ! ! ! ! ! ! ! ! ! ! ! ! ! ! { ; . . . . . . . . .     ",
"    . . . . . . . . . . I P Q ! ! ! ! R S T . . . . U V O l . . . . . . . . . . . . . . . . . . . . l O G ! ! ! ! ! ! ! ! ! ! ! ! ! ! ] > . . . . . . . . .     ",
"  . . . . 0 . . . . . v W X ! ! ! ! ! ! / j 3 . . . . + u . . . . . . . . . . . . . . . . . . . . . . u H B ! ! ! ! ! ! ! ! ! ! ! ! ! ! , . . . . . . . . . .   ",
"  . . . 0 . . . . . v Y ! ! ! ! ! ! ! ! ! Z ` 0 . . . . . 3 . . . . . . . . . . . . . . . . . . . . . . ; C ! ! ! ! ! ! ! ! ! ! ! ! ! ! ' + . . . . . . . . .   ",
"  . . 0 . . . . 0 I  .! ! ! ! ! ! ! ! ! ! ! ..7 u . . . . . 3 . . . . . . . . . . . . . . . . . . . . . 3 7 p ! ! ! ! ! ! ! ! ! ! ! ! ! ) @ . . . . . . . . .   ",
"  . . . . . . . v +.B ! ! ! ! ! ! ! ! ! ! ! ! @.L #.. . . . . 3 . . . . . . . . . . . . . . . . . . . . . t q e ! ! ! ! ! ! ! ! ! ! ! ! ! # . . . . . . . . .   ",
". 0 . . . . . m $.%.! ! ! ! ! ! ! ! ! ! ! ! ! ! o &.. . . . . . 3 . . . . . . . . . . . . . . . . . . . . v r f ! ! ! ! ! ! ! ! ! ! ! ! ! $ . . . . . . . . . . ",
"3 . . . . . m *.! ! ! ! ! ! ! ! ! ! ! ! ! ! ! ! ! o =.. . . . . . 3 . . . . . . . . . . . . . . . . . . . . s g ! ! ! ! ! ! ! ! ! ! ! ! ! % . . . . . . . . . . ",
". . . . . v i -.! ! ! ! ! ! ! ! ! ! ! ! ! ! ! ! ! ! ;.>.m . . . . 3 3 . . . . . . . . . . . . . . . . . . . t h ! ! ! ! ! ! ! ! ! ! ! ! ! & . . . . . . . . . . ",
". . . . v ,.'.! ! ! ! ! ! ! ! ! ! ! ! ! ! ! ! ! ! ! ! 9 r v . . . . . 3 . . . . . . . . . . . . . . . . . . u i ! ! ! ! ! ! ! ! ! ! ! ! ! * . . . . . . . . . . ",
". . . u ).!.! ! ! ! ! ! ! ! ! ! ! ! ! ! ! ! ! ! ! ! ! ! ~.{.. . . . . . 3 . . . . . . . . . . . . . . . . . v j ! ! ! ! ! ! ! ! ! ! ! ! ! = . . . . . . . . . . ",
". . m ].^.! ! ! ! ! ! ! ! ! ! ! ! ! ! ! ! ! ! ! ! ! ! ! ! /.(.. . . . . . 3 . . . . . . . . . . . . . . . . . k ! ! ! ! ! ! ! ! ! ! ! ! ! - . . . . . . . . . . ",
". y _.:.<.<.<.<.<.<.[.! ! ! ! ! ! ! ! ! ! ! ! ! }.<.<.<.|.<.1.l . . . . . 3 . . . . 3 . . . . . m 2.3.3.3.3.3.4.! ! ! ! ! ! ! ! ! ! ! ! ! [.3.3.3.3.3.3.5.6.3 . ",
". . . . . . . . . . = ! ! ! ! ! ! ! ! ! ! ! ! ! j v . . . . . . . . . . . . . . . . 3 . . . . . y 7.8.! ! ! ! ! ! ! ! ! ! ! ! ! ! ! ! ! ! ! ! ! ! ! ! 9.0.#.. . ",
". . . . . . . . . . * ! ! ! ! ! ! ! ! ! ! ! ! ! i u . . . . . . . . . . . . . . . . . 3 . . . . . 3 a.8.! ! ! ! ! ! ! ! ! ! ! ! ! ! ! ! ! ! ! ! ! ! 9.b.m . . . ",
". . . . . . . . . . & ! ! ! ! ! ! ! ! ! ! ! ! ! h t . . . . . . . . . . . . . . . . . . 3 . . . . . 3 2 c.! ! ! ! ! ! ! ! ! ! ! ! ! ! ! ! ! ! ! ! d.e.3 . . . . ",
". . . . . . . . . . % ! ! ! ! ! ! ! ! ! ! ! ! ! g s . . . . . . . . . . . . . . . . . . . 3 . . . . . m {./ ! ! ! ! ! ! ! ! ! ! ! ! ! ! ! ! ! ! f.5.g.. . . . . ",
". . . . . . . . . . $ ! ! ! ! ! ! ! ! ! ! ! ! ! f r v . . . . . . . . . . . . . . . . . . . 3 . . . . . m h.8 ! ! ! ! ! ! ! ! ! ! ! ! ! ! ! ! i.j.k.. . . . . 0 ",
"  . . . . . . . . . # ! ! ! ! ! ! ! ! ! ! ! ! ! e q t . . . . . . . . . . . . . . . . . . . . 3 . . . . . y r l.! ! ! ! ! ! ! ! ! ! ! ! ! ! m.n.m . . . . . 3   ",
"  . . . . . . . . . @ ) ! ! ! ! ! ! ! ! ! ! ! ! ! p 7 3 . . . . . . . . . . . . . . . . . . . . 3 . . . . . y &.o.! ! ! ! ! ! ! ! ! ! ! ! %.p.y . . . . . 3 .   ",
"  . . . . . . . . . + ' ! ! ! ! ! ! ! ! ! ! ! ! ! ! C ; . . . . . . . . . . . . . . . . . . . . . 3 . . . . . #.q.r.! ! ! ! ! ! ! ! ! ! s.t.u.. . . . . 3 . .   ",
"  . . . . . . . . . . , ! ! ! ! ! ! ! ! ! ! ! ! ! ! B H u . . . . . . . . . . . . . . . . . . . . . 3 3 . . . . #.7 v.! ! ! ! ! ! ! ! w.x.y.. . . . . 3 . . .   ",
"    . . . . . . . . . > ] ! ! ! ! ! ! ! ! ! ! ! ! ! ! G O l . . . . . . . . . . . . . . . . . . . . l z.A.. . . . y L B.! ! ! ! ! ! C.+.v . . . . . 3 . . .     ",
"    . . . . . . . . . ; { ! ! ! ! ! ! ! ! ! ! ! ! ! ! ! N O u . . . . . . . . . . . . . . . . . . u O N D.h.. . . . y O E.! ! ! ! ( F.y . . . . . 3 . . . .     ",
"    . . . . . . . . . . ~ ( ! ! ! ! ! ! ! ! ! ! ! ! ! ! ! G H ; 3 . . . . . . . . . . . . . . 3 ; H G ! ! D.a . . . . u 7.G.! ! H.C k.. . . . . 3 . . . . .     ",
"    . . . . . . . . . . . / ! ! ! ! ! ! ! ! ! ! ! ! ! ! ! ! B C 7 t v . . . . . . . . . . v t 7 C B ! ! ! ! R I.. . . . #.J.R K.L.y.. . . . . 3 . . . . . .     ",
"      . . . . . . . . . . ^ ! ! ! ! ! ! ! ! ! ! ! ! ! ! ! ! ! ! p q r s t u v . . v u t s r q p ! ! ! ! ! ! ! * 7 . . . . y x n.y . . . . . 3 . . . . . .       ",
"      . . . . . . . . . . . : ! ! ! ! ! ! ! ! ! ! ! ! ! ! ! ! ! ! e f g h i j k k j i h g f e ! ! ! ! ! ! ! ! ! M.@ . . . . . . . . . . . 3 . . . . . . .       ",
"        . . . . . . . . . . _ [ ! ! ! ! ! ! ! ! ! ! ! ! ! ! ! ! ! ! ! ! ! ! ! ! ! ! ! ! ! ! ! ! ! ! ! ! ! ! ! ! ! G _ . . . . . . . . . 3 . . . . . . .         ",
"        . . . . . . . . . . . < 1 ! ! ! ! ! ! ! ! ! ! ! ! ! ! ! ! ! ! ! ! ! ! ! ! ! ! ! ! ! ! ! ! ! ! ! ! ! ! ! ! ! @.A.. . . . . . . 3 . . . . . . . .         ",
"          . . . . . . . . . . . | ! ! ! ! ! ! ! ! ! ! ! ! ! ! ! ! ! ! ! ! ! ! ! ! ! ! ! ! ! ! ! ! ! ! ! ! ! ! ! ! ! ! N.2 . . . . . 3 3 . . . . . . .           ",
"          . . . . . . . . . . . } & ! ! ! ! ! ! ! ! ! ! ! ! ! ! ! ! ! ! ! ! ! ! ! ! ! ! ! ! ! ! ! ! ! ! ! ! ! ! ! ! ! ! F O.. . . 3 . . . . . . . . .           ",
"            . . . . . . . . . . . 2 & ! ! ! ! ! ! ! ! ! ! ! ! ! ! ! ! ! ! ! ! ! ! ! ! ! ! ! ! ! ! ! ! ! ! ! ! ! ! ! ! ! ! P.Q.. 3 . . . . . . . . .             ",
"            . . . . . . . . . . . . 2 & ! ! ! ! ! ! ! ! ! ! ! ! ! ! ! ! ! ! ! ! ! ! ! ! ! ! ! ! ! ! ! ! ! ! ! ! ! ! ! ! & 2 0 3 . . . . . . . . . .             ",
"              . . . . . . . . . . . . 2 & ! ! ! ! ! ! ! ! ! ! ! ! ! ! ! ! ! ! ! ! ! ! ! ! ! ! ! ! ! ! ! ! ! ! ! ! ! ! & 2 . . . . . . . . . . . .               ",
"                . . . . . . . . . . . . } | 1 ! ! ! ! ! ! ! ! ! ! ! ! ! ! ! ! ! ! ! ! ! ! ! ! ! ! ! ! ! ! ! ! ! ! 1 | } . . . . . . . . . . . .                 ",
"                . . . . . . . . . . . . . . < [ ! ! ! ! ! ! ! ! ! ! ! ! ! ! ! ! ! ! ! ! ! ! ! ! ! ! ! ! ! ! ! ! [ < . . . . . . . . . . . . . .                 ",
"                  . . . . . . . . . . . . . . _ : ! ! ! ! ! ! ! ! ! ! ! ! ! ! ! ! ! ! ! ! ! ! ! ! ! ! ! ! ! ! : _ . . . . . . . . . . . . . .                   ",
"                    . . . . . . . . . . . . . . . ^ / ( ! ! ! ! ! ! ! ! ! ! ! ! ! ! ! ! ! ! ! ! ! ! ! ! ( / ^ . . . . . . . . . . . . . . .                     ",
"                      . . . . . . . . . . . . . . . . ~ { ] ! ! ! ! ! ! ! ! ! ! ! ! ! ! ! ! ! ! ! ! ] { ~ . . . . . . . . . . . . . . . .                       ",
"                        . . . . . . . . . . . . . . . . ; > , ' ) ! ! ! ! ! ! ! ! ! ! ! ! ! ! ) ' , > ; . . . . . . . . . . . . . . . .                         ",
"                          . . . . . . . . . . . . . . . . . . + @ # $ % & * = - - = * & % $ # @ + . . . . . . . . . . . . . . . . . .                           ",
"                            . . . . . . . . . . . . . . . . . . . . . . . . . . . . . . . . . . . . . . . . . . . . . . . . . . . .                             ",
"                              . . . . . . . . . . . . . . . . . . . . . . . . . . . . . . . . . . . . . . . . . . . . . . . . . .                               ",
"                                  . . . . . . . . . . . . . . . . . . . . . . . . . . . . . . . . . . . . . . . . . . . . . .                                   ",
"                                    . . . . . . . . . . . . . . . . . . . . . . . . . . . . . . . . . . . . . . . . . . . .                                     ",
"                                        . . . . . . . . . . . . . . . . . . . . . . . . . . . . . . . . . . . . . . . .                                         ",
"                                            . . . . . . . . . . . . . . . . . . . . . . . . . . . . . . . . . . . .                                             ",
"                                                . . . . . . . . . . . . . . . . . . . . . . . . . . . . . . . .                                                 ",
"                                                    . . . . . . . . . . . . . . . . . . . . . . . . . . . .                                                     ",
"                                                            . . . . . . . . . . . . . . . . . . . .                                                             ",
"                                                                    . . . . . . . . . . . .                                                                     "};
