<svg width="300" height="205" viewBox="0 0 300 205" fill="none" xmlns="http://www.w3.org/2000/svg">
<g clip-path="url(#clip0)">
<path d="M127.628 49.6012C125.191 58.6086 116.845 64.1872 116.845 64.1872C116.845 64.1872 112.45 55.1618 114.886 46.1543C117.323 37.1469 125.669 31.5684 125.669 31.5684C125.669 31.5684 130.065 40.5938 127.628 49.6012Z" fill="#4E0D4E"/>
<path d="M105.462 49.6012C107.899 58.6086 116.245 64.1872 116.245 64.1872C116.245 64.1872 120.641 55.1618 118.204 46.1543C115.767 37.1469 107.421 31.5684 107.421 31.5684C107.421 31.5684 103.026 40.5938 105.462 49.6012Z" fill="#3A0A3A"/>
<path d="M109.042 47.6655C115.729 54.1743 116.545 64.1799 116.545 64.1799C116.545 64.1799 106.521 63.6326 99.835 57.1238C93.1487 50.615 92.332 40.6094 92.332 40.6094C92.332 40.6094 102.356 41.1567 109.042 47.6655Z" fill="#3F3D56"/>
<path d="M124.048 47.6655C117.362 54.1743 116.545 64.1799 116.545 64.1799C116.545 64.1799 126.569 63.6326 133.255 57.1238C139.941 50.615 140.758 40.6094 140.758 40.6094C140.758 40.6094 130.734 41.1567 124.048 47.6655Z" fill="#3F3D56"/>
<path d="M284.522 182.496C286.089 188.289 291.457 191.877 291.457 191.877C291.457 191.877 294.284 186.072 292.717 180.279C291.15 174.486 285.782 170.898 285.782 170.898C285.782 170.898 282.955 176.703 284.522 182.496Z" fill="#6C63FF"/>
<path d="M286.825 181.251C291.126 185.437 291.651 191.872 291.651 191.872C291.651 191.872 285.204 191.52 280.904 187.334C276.603 183.148 276.078 176.713 276.078 176.713C276.078 176.713 282.525 177.065 286.825 181.251Z" fill="#3F3D56"/>
<path opacity="0.75" d="M33.6035 61.6396V191.798H199.487V61.6396H33.6035ZM142.504 127.593C142.504 128.769 142.434 129.944 142.294 131.112L141.571 131.025C141.434 132.164 141.228 133.293 140.955 134.407L141.663 134.581C141.382 135.724 141.032 136.85 140.614 137.951L139.933 137.692C139.526 138.765 139.054 139.812 138.52 140.828L139.165 141.167C138.617 142.209 138.007 143.216 137.337 144.184L136.738 143.77C136.085 144.714 135.377 145.617 134.616 146.476L135.161 146.959C134.381 147.839 133.548 148.672 132.668 149.452L132.185 148.907C131.327 149.668 130.424 150.377 129.481 151.029L129.895 151.628C128.928 152.297 127.921 152.907 126.881 153.455L126.541 152.811C125.526 153.345 124.48 153.817 123.407 154.224L123.666 154.906C122.566 155.323 121.441 155.674 120.299 155.955L120.125 155.247C119.011 155.522 117.882 155.728 116.743 155.865L116.83 156.588C115.662 156.729 114.488 156.799 113.312 156.8L113.311 156.073L113.297 156.073C112.155 156.073 111.014 156.004 109.879 155.868L109.793 156.592C108.625 156.452 107.466 156.241 106.324 155.962L106.497 155.254C105.382 154.981 104.285 154.64 103.212 154.233L102.953 154.915C101.853 154.498 100.778 154.014 99.736 153.467L100.075 152.822C99.059 152.288 98.0764 151.694 97.1323 151.042L96.7181 151.641C95.7503 150.972 94.8234 150.246 93.9423 149.467L94.4256 148.921C93.5668 148.16 92.7544 147.349 91.9929 146.491L91.4478 146.975C90.6673 146.095 89.9401 145.17 89.2701 144.203L89.8693 143.788C89.2165 142.845 88.6211 141.864 88.0866 140.849L87.4418 141.189C86.8935 140.148 86.4088 139.075 85.9902 137.975L86.6713 137.716C86.2634 136.644 85.9213 135.548 85.6466 134.434L84.9391 134.609C84.6577 133.466 84.4457 132.308 84.3042 131.14L85.0271 131.053C84.8884 129.909 84.8184 128.759 84.8177 127.607L84.0907 127.621L84.091 127.582C84.0913 126.419 84.1602 125.258 84.2974 124.103L85.0208 124.189C85.1565 123.05 85.3611 121.92 85.6335 120.806L84.9255 120.633C85.2053 119.489 85.5543 118.364 85.9707 117.262L86.6523 117.52C87.0584 116.447 87.5293 115.399 88.0624 114.383L87.4171 114.044C87.9641 113.002 88.5733 111.994 89.2415 111.025L89.8413 111.439C90.4929 110.495 91.2007 109.591 91.9609 108.732L91.4151 108.249C92.1945 107.368 93.0261 106.534 93.9052 105.753L94.3893 106.298C95.2467 105.536 96.1491 104.826 97.0917 104.173L96.6764 103.574C97.643 102.904 98.649 102.293 99.6889 101.744L100.029 102.389C101.044 101.853 102.09 101.38 103.162 100.972L102.902 100.291C104.002 99.8719 105.126 99.5205 106.268 99.2383L106.443 99.9457C107.557 99.6704 108.686 99.463 109.824 99.3244L109.737 98.6016C110.904 98.46 112.079 98.3882 113.255 98.3867L113.256 99.1138C113.27 99.1138 113.284 99.1133 113.297 99.1133C114.431 99.1137 115.563 99.181 116.688 99.315L116.774 98.5914C117.942 98.7302 119.101 98.9393 120.244 99.2176L120.071 99.9259C121.186 100.198 122.284 100.538 123.358 100.943L123.615 100.261C124.716 100.677 125.791 101.16 126.834 101.706L126.496 102.352C127.512 102.884 128.495 103.478 129.44 104.129L129.854 103.529C130.822 104.197 131.75 104.922 132.631 105.701L132.149 106.247C133.008 107.007 133.821 107.818 134.584 108.675L135.128 108.19C135.91 109.069 136.638 109.994 137.309 110.96L136.71 111.376C137.364 112.318 137.96 113.299 138.495 114.312L139.14 113.972C139.689 115.013 140.175 116.085 140.595 117.185L139.914 117.445C140.323 118.516 140.666 119.612 140.942 120.725L141.649 120.55C141.932 121.692 142.145 122.85 142.287 124.018L141.565 124.106C141.704 125.245 141.775 126.391 141.777 127.538H142.504L142.504 127.593Z" fill="#EFEFEF"/>
<path d="M40.989 71.1362C42.5945 71.1362 43.896 69.8347 43.896 68.2292C43.896 66.6238 42.5945 65.3223 40.989 65.3223C39.3835 65.3223 38.082 66.6238 38.082 68.2292C38.082 69.8347 39.3835 71.1362 40.989 71.1362Z" fill="#6C63FF"/>
<path d="M50.0007 71.1362C51.6062 71.1362 52.9077 69.8347 52.9077 68.2292C52.9077 66.6238 51.6062 65.3223 50.0007 65.3223C48.3952 65.3223 47.0938 66.6238 47.0938 68.2292C47.0938 69.8347 48.3952 71.1362 50.0007 71.1362Z" fill="#6C63FF"/>
<path d="M59.0124 71.1362C60.6179 71.1362 61.9194 69.8347 61.9194 68.2292C61.9194 66.6238 60.6179 65.3223 59.0124 65.3223C57.407 65.3223 56.1055 66.6238 56.1055 68.2292C56.1055 69.8347 57.407 71.1362 59.0124 71.1362Z" fill="#6C63FF"/>
<path d="M191.57 74.334H40.9883V74.9154H191.57V74.334Z" fill="white"/>
<path d="M141.863 167.648H84.0137V168.229H141.863V167.648Z" fill="#E6E6E6"/>
<path d="M141.863 173.752H84.0137V174.334H141.863V173.752Z" fill="#E6E6E6"/>
<path d="M141.863 179.857H84.0137V180.439H141.863V179.857Z" fill="#E6E6E6"/>
<path d="M300 191.485H0V192.067H300V191.485Z" fill="#3F3D56"/>
<path d="M222.491 57.4082C216.759 57.4082 212.111 62.5656 212.111 68.9276V77.0106H214.597L216.036 74.0158L215.677 77.0106H231.655L232.964 74.288L232.637 77.0106H234.436V70.664C234.436 63.343 229.088 57.4082 222.491 57.4082Z" fill="#2F2E41"/>
<path d="M222.568 178.602L227.315 191.343L233.061 194.341L228.564 178.602H222.568Z" fill="#FFB8B8"/>
<path d="M248.801 179.601L256.046 194.34L259.793 192.092L254.297 177.103L248.801 179.601Z" fill="#FFB8B8"/>
<path d="M220.819 74.6747C224.683 74.6747 227.814 71.5429 227.814 67.6796C227.814 63.8164 224.683 60.6846 220.819 60.6846C216.956 60.6846 213.824 63.8164 213.824 67.6796C213.824 71.5429 216.956 74.6747 220.819 74.6747Z" fill="#FFB8B8"/>
<path d="M219.82 73.1758C219.82 73.1758 222.319 79.6712 220.82 81.42C219.321 83.1688 230.313 78.6719 230.313 78.6719C230.313 78.6719 225.566 72.926 225.816 70.4277L219.82 73.1758Z" fill="#FFB8B8"/>
<path d="M228.566 78.1724L232.313 77.4229L236.061 72.9261C236.061 72.9261 237.81 66.6805 240.058 64.9317V64.1822C240.058 64.1822 228.566 56.6875 225.068 56.9373C225.068 56.9373 213.327 60.4349 215.575 56.9373C216.208 55.9536 217.294 55.1676 218.53 54.5458C220.305 53.6725 222.24 53.1716 224.216 53.0739C226.191 52.9761 228.166 53.2836 230.019 53.9773L246.304 59.9352C246.668 60.8135 246.834 61.7613 246.791 62.7111C246.748 63.661 246.496 64.5897 246.054 65.4314C244.555 68.4293 239.308 83.9184 239.308 83.9184C238.07 86.4319 236.986 89.0182 236.061 91.6629C234.812 95.4103 233.812 97.9085 233.812 97.9085L212.577 97.6587L214.326 89.9141C214.326 89.9141 212.577 86.6664 210.079 86.4166C210.079 86.4166 192.092 79.4215 191.342 75.1745C191.342 75.1745 191.092 73.6756 192.092 72.9261C193.091 72.1766 204.333 59.9352 204.333 59.9352C204.333 59.9352 209.33 53.4398 211.828 55.4384C214.326 57.437 207.331 62.4335 207.331 62.4335C207.331 62.4335 200.086 73.4257 199.087 74.1752C199.087 74.1752 206.082 78.4222 208.08 78.9219C210.079 79.4215 214.826 78.9219 217.074 80.9205C218.074 81.1966 219.118 81.2725 220.147 81.1439C221.176 81.0153 222.169 80.6846 223.07 80.171C226.068 78.4222 228.566 78.1724 228.566 78.1724Z" fill="#FFB8B8"/>
<path d="M218.071 79.9207L214.324 89.9137C214.324 89.9137 211.076 92.9116 212.325 99.9067C212.325 99.9067 212.825 106.402 211.326 108.401C209.827 110.399 189.092 133.133 208.828 181.1C208.828 181.1 222.069 178.601 232.061 182.848C242.054 187.095 258.543 178.351 258.543 178.351L232.561 114.396C232.561 114.396 231.812 101.156 236.059 95.16L233.311 92.9116C233.311 92.9116 230.063 84.9172 230.563 82.419C230.563 82.419 231.562 77.4225 232.061 76.9229H230.063L227.315 83.4183C227.315 83.4183 222.818 91.9123 219.071 91.1628C215.323 90.4134 218.321 85.167 218.321 85.167L219.57 80.1706L218.071 79.9207Z" fill="#2F2E41"/>
<path d="M233.062 192.092C233.062 192.092 227.387 189.771 226.977 190.432C226.567 191.093 224.568 195.09 224.568 195.09C224.568 195.09 216.823 203.085 223.069 204.084C229.315 205.083 230.064 201.586 230.064 201.586C230.064 201.586 230.314 201.336 231.313 201.336C232.312 201.336 236.31 199.837 236.06 199.087C235.81 198.338 233.062 192.092 233.062 192.092Z" fill="#2F2E41"/>
<path d="M260.044 190.343C260.044 190.343 254.797 191.592 254.547 192.592C254.298 193.591 252.549 200.336 254.048 200.836C255.547 201.336 257.795 202.085 258.545 201.835C259.294 201.585 261.043 205.083 264.79 204.333C268.538 203.584 270.286 203.084 270.037 202.834C269.787 202.585 268.787 198.837 265.79 197.338C262.792 195.839 260.044 190.343 260.044 190.343Z" fill="#2F2E41"/>
<path d="M225.442 60.5811C224.942 59.9103 224.295 59.3637 223.55 58.9836C222.805 58.6034 221.983 58.4 221.146 58.3892H220.943C217.013 58.3892 213.828 61.9446 213.828 66.3305V66.3305H215.145L215.357 64.7121L215.669 66.3305H223.478L224.132 64.9613L223.968 66.3305H225.504C226.221 69.8904 225.191 73.4503 222.414 77.0102H225.031L226.34 74.2718L226.013 77.0102H231.001L231.982 70.7119C231.982 65.995 229.241 61.9952 225.442 60.5811Z" fill="#2F2E41"/>
<path d="M240.68 29.1514C240.68 29.1281 240.681 29.105 240.681 29.0818C240.681 27.9627 240.615 26.8445 240.484 25.7331L241.316 25.6316C241.173 24.4639 240.96 23.3058 240.678 22.1637L239.881 22.3608C239.612 21.2492 239.276 20.1549 238.875 19.084L239.623 18.7984C239.204 17.6991 238.718 16.6262 238.169 15.5857L237.478 15.9505C236.949 14.9348 236.36 13.952 235.712 13.0074L236.337 12.5739C235.666 11.6079 234.938 10.6828 234.157 9.80379L233.604 10.2952C232.847 9.43341 232.039 8.61788 231.184 7.85299L231.66 7.31484C230.778 6.53596 229.85 5.81057 228.882 5.14256L228.486 5.71648C227.544 5.05857 226.563 4.45828 225.548 3.9189L225.862 3.31974C224.819 2.77368 223.745 2.29114 222.644 1.87477L222.411 2.4889C221.337 2.076 220.238 1.72914 219.121 1.45028L219.272 0.831211C218.129 0.552643 216.97 0.343465 215.802 0.204823L215.729 0.819308C214.586 0.67822 213.436 0.605936 212.284 0.602846L212.283 0C211.107 0.00166833 209.932 0.0734284 208.765 0.214898L208.836 0.800607C207.691 0.935307 206.555 1.13969 205.435 1.41261L205.296 0.851369C204.154 1.1339 203.03 1.48548 201.931 1.90415L202.133 2.43482C201.054 2.84286 200 3.31646 198.979 3.853L198.717 3.35765C197.677 3.90663 196.671 4.51766 195.705 5.18743L196.021 5.64363C195.072 6.30005 194.164 7.01329 193.301 7.77944L192.934 7.36639C192.055 8.14791 191.223 8.98138 190.443 9.8623L190.857 10.2282C190.093 11.093 189.381 12.0033 188.727 12.9541L188.27 12.6388C187.602 13.6076 186.992 14.6157 186.445 15.6578L186.941 15.9179C186.407 16.9411 185.936 17.996 185.53 19.0766L184.999 18.8758C184.583 19.9771 184.234 21.1028 183.954 22.2465L184.515 22.3838C184.245 23.5046 184.044 24.6408 183.912 25.7862L183.326 25.7164C183.188 26.8748 183.119 28.0403 183.119 29.2068V29.2343L183.723 29.2229C183.728 30.3784 183.803 31.5326 183.946 32.6792L183.333 32.7535C183.474 33.9214 183.686 35.0796 183.967 36.222L184.586 36.0696C184.868 37.1851 185.217 38.2824 185.632 39.3553L185.018 39.5889C185.437 40.6885 185.922 41.7617 186.47 42.8028L187.069 42.4873C187.61 43.5001 188.212 44.4791 188.872 45.4192L188.299 45.816C188.969 46.7827 189.696 47.7084 190.476 48.5883L191.014 48.1115C191.78 48.9647 192.598 49.7711 193.461 50.5263L192.971 51.0796C193.852 51.8596 194.779 52.5859 195.747 53.2548L196.179 52.6292C197.125 53.2746 198.11 53.8623 199.127 54.389L198.764 55.0806C199.807 55.6276 200.881 56.1112 201.982 56.5285L202.266 55.7793C203.338 56.1785 204.434 56.5121 205.547 56.7783L205.352 57.5752C206.495 57.8549 207.653 58.0653 208.821 58.2052L208.921 57.3727C210.01 57.4981 211.105 57.5613 212.201 57.5618C212.247 57.5618 212.293 57.5602 212.34 57.56L212.34 58.4134C213.516 58.4128 214.691 58.3421 215.859 58.2018L215.755 57.3414C216.887 57.2002 218.01 56.9908 219.117 56.7142L219.328 57.5687C220.47 57.2872 221.595 56.9367 222.695 56.5192L222.379 55.6872C223.444 55.2795 224.483 54.8078 225.491 54.2747L225.909 55.0691C226.95 54.5211 227.957 53.911 228.924 53.242L228.41 52.4998C229.347 51.8502 230.244 51.1451 231.096 50.3884L231.697 51.0658C232.577 50.2851 233.409 49.4525 234.19 48.5724L233.512 47.9721C234.269 47.1191 234.974 46.2216 235.624 45.2844L236.366 45.7977C237.035 44.8296 237.645 43.8221 238.193 42.7807L237.399 42.363C237.932 41.3541 238.403 40.3141 238.811 39.2484L239.643 39.564C240.06 38.4631 240.41 37.3379 240.691 36.1946L239.837 35.9848C240.113 34.8775 240.322 33.7545 240.462 32.622L241.323 32.7254C241.462 31.5577 241.533 30.3828 241.533 29.2068V29.1514L240.68 29.1514Z" fill="#F3F3F3"/>
</g>
<defs>
<clipPath id="clip0">
<rect width="300" height="204.439" fill="white"/>
</clipPath>
</defs>
</svg>
