<?xml version="1.0" encoding="UTF-8"?>
<svg width="8px" height="8px" viewBox="0 0 8 8" version="1.1" xmlns="http://www.w3.org/2000/svg" xmlns:xlink="http://www.w3.org/1999/xlink">
    <!-- Generator: Sketch 52 (66869) - http://www.bohemiancoding.com/sketch -->
    <title>Group 2</title>
    <desc>Created with Sketch.</desc>
    <g id="Page-1" stroke="none" stroke-width="1" fill="none" fill-rule="evenodd">
        <g id="Group-2" transform="translate(-1.000000, -1.000000)" fill="#666666">
            <path d="M4.5,0 L5.5,0 C5.77614237,-5.07265313e-17 6,0.223857625 6,0.5 L6,9.5 C6,9.77614237 5.77614237,10 5.5,10 L4.5,10 C4.22385763,10 4,9.77614237 4,9.5 L4,0.5 C4,0.223857625 4.22385763,5.07265313e-17 4.5,0 Z" id="Combined-Shape" transform="translate(5.000000, 5.000000) rotate(45.000000) translate(-5.000000, -5.000000) "></path>
            <path d="M4.5,0 L5.5,0 C5.77614237,-5.07265313e-17 6,0.223857625 6,0.5 L6,9.5 C6,9.77614237 5.77614237,10 5.5,10 L4.5,10 C4.22385763,10 4,9.77614237 4,9.5 L4,0.5 C4,0.223857625 4.22385763,5.07265313e-17 4.5,0 Z" id="Combined-Shape" transform="translate(5.000000, 5.000000) rotate(135.000000) translate(-5.000000, -5.000000) "></path>
        </g>
    </g>
</svg>