<?xml version="1.0" encoding="UTF-8"?>
<svg width="10px" height="10px" viewBox="0 0 10 10" version="1.1" xmlns="http://www.w3.org/2000/svg" xmlns:xlink="http://www.w3.org/1999/xlink">
    <!-- Generator: Sketch 52 (66869) - http://www.bohemiancoding.com/sketch -->
    <title>Group</title>
    <desc>Created with Sketch.</desc>
    <g id="Page-1" stroke="none" stroke-width="1" fill="none" fill-rule="evenodd">
        <g id="Group" transform="translate(1.000000, 1.000000)">
            <path d="M1.99166667,0.541666667 C2.60833642,0.18055375 3.27777417,0 4,0 C4.72222583,0 5.39027471,0.179164875 6.00416667,0.5375 C6.61805863,0.895835125 7.10416487,1.38194137 7.4625,1.99583333 C7.82083512,2.60972529 8,3.27777417 8,4 C8,4.72222583 7.82083512,5.39027471 7.4625,6.00416667 C7.10416487,6.61805863 6.61805863,7.10416487 6.00416667,7.4625 C5.39027471,7.82083512 4.72222583,8 4,8 C3.27777417,8 2.60972529,7.82083512 1.99583333,7.4625 C1.38194137,7.10416487 0.895835125,6.61805863 0.5375,6.00416667 C0.179164875,5.39027471 0,4.72222583 0,4 C0,3.27777417 0.179164875,2.60972529 0.5375,1.99583333 C0.895835125,1.38194137 1.3805525,0.897224 1.99166667,0.541666667 Z" id="info" stroke="#666666" stroke-width="0.666666667"></path>
            <path d="M3.575,2.3 C3.69722283,2.41666725 3.83888808,2.475 4,2.475 C4.16111192,2.475 4.30277717,2.41527837 4.425,2.29583333 C4.54722283,2.17638829 4.60833333,2.03611192 4.60833333,1.875 C4.60833333,1.71388808 4.54722283,1.57083396 4.425,1.44583333 C4.30277717,1.32083271 4.16111192,1.25833333 4,1.25833333 C3.83888808,1.25833333 3.69722283,1.32083271 3.575,1.44583333 C3.45277717,1.57083396 3.39166667,1.71388808 3.39166667,1.875 C3.39166667,2.03611192 3.45277717,2.17777717 3.575,2.3 Z" id="Path" fill="#6C6C6C"></path>
            <path d="M3.41666667,6.4 L4.58333333,6.4 C4.6611115,6.4 4.72499975,6.37500025 4.775,6.325 C4.82500025,6.27499975 4.85,6.2111115 4.85,6.13333333 L4.85,5.86666667 C4.85,5.7888885 4.82500025,5.72500025 4.775,5.675 C4.72499975,5.62499975 4.6611115,5.6 4.58333333,5.6 L4.59166667,3.46666667 C4.59166667,3.39444408 4.56527804,3.33194471 4.5125,3.27916667 C4.45972196,3.22638863 4.39722258,3.2 4.325,3.2 L3.41666667,3.2 C3.3388885,3.2 3.27500025,3.22499975 3.225,3.275 C3.17499975,3.32500025 3.15,3.3888885 3.15,3.46666667 L3.15,3.73333333 C3.15,3.8111115 3.17499975,3.87499975 3.225,3.925 C3.27500025,3.97500025 3.3388885,4 3.41666667,4 L3.41666667,5.6 C3.3388885,5.6 3.27500025,5.62499975 3.225,5.675 C3.17499975,5.72500025 3.15,5.7888885 3.15,5.86666667 L3.15,6.13333333 C3.15,6.2111115 3.17499975,6.27499975 3.225,6.325 C3.27500025,6.37500025 3.3388885,6.4 3.41666667,6.4 Z" id="Path" fill="#6C6C6C"></path>
        </g>
    </g>
</svg>