<?xml version="1.0" encoding="UTF-8"?>
<svg width="81px" height="81px" viewBox="0 0 81 81" version="1.1" xmlns="http://www.w3.org/2000/svg" xmlns:xlink="http://www.w3.org/1999/xlink">
    <!-- Generator: Sketch 52 (66869) - http://www.bohemiancoding.com/sketch -->
    <title>Group 5</title>
    <desc>Created with Sketch.</desc>
    <g id="Page-1" stroke="none" stroke-width="1" fill="none" fill-rule="evenodd" opacity="0.5">
        <g id="Group-5" transform="translate(40.568542, 40.568542) rotate(45.000000) translate(-40.568542, -40.568542) translate(0.568542, 0.568542)">
            <g id="Group-4">
                <g id="Group-3" transform="translate(40.000000, 40.000000) rotate(90.000000) translate(-40.000000, -40.000000) ">
                    <circle id="Oval" fill="#621A61" cx="40" cy="40" r="40"></circle>
                    <path d="M40,70 C56.5685425,70 70,56.5685425 70,40 C70,23.4314575 56.5685425,10 40,10 C23.4314575,10 10,23.4314575 10,40 C10,56.5685425 23.4314575,70 40,70 Z M40,56 C48.836556,56 56,48.836556 56,40 C56,31.163444 48.836556,24 40,24 C31.163444,24 24,31.163444 24,40 C24,48.836556 31.163444,56 40,56 Z" id="Combined-Shape" fill="#621A61"></path>
                    <path d="M40,70 C23.4314575,70 10,56.5685425 10,40 C10,23.4314575 23.4314575,10 40,10 C56.5685425,10 70,23.4314575 70,40 C70,56.5685425 56.5685425,70 40,70 Z M40,58 C49.9411255,58 58,49.9411255 58,40 C58,30.0588745 49.9411255,22 40,22 C30.0588745,22 22,30.0588745 22,40 C22,49.9411255 30.0588745,58 40,58 Z" id="Combined-Shape" fill="#FFFFFF"></path>
                    <rect id="Rectangle" fill="#621A61" x="29" y="9" width="10" height="18"></rect>
                    <rect id="Rectangle" fill="#621A61" x="40" y="54" width="9" height="18"></rect>
                    <rect id="Rectangle" fill="#621A61" x="41" y="63" width="16" height="9"></rect>
                    <rect id="Rectangle" fill="#621A61" x="20" y="8" width="16" height="9"></rect>
                </g>
                <path d="M31.9289635,48.59784 L15.6941521,48.59784 C15.1418674,48.59784 14.6941521,49.0455553 14.6941521,49.59784 L14.6941521,65.5780319 C14.6941521,66.1303167 15.1418674,66.5780319 15.6941521,66.5780319 C15.9566309,66.5780319 16.2085866,66.4748331 16.3956482,66.2907052 L32.6304596,50.3105134 C33.0240582,49.9230878 33.0290624,49.2899426 32.6416368,48.896344 C32.4536665,48.7053786 32.1969198,48.59784 31.9289635,48.59784 Z" id="Path-2" fill="#FFFFFF"></path>
                <path d="M61.2348114,11 L45,11 C44.4477153,11 44,11.4477153 44,12 L44,27.9801919 C44,28.5324766 44.4477153,28.9801919 45,28.9801919 C45.2624788,28.9801919 45.5144344,28.8769931 45.7014961,28.6928652 L61.9363074,12.7126733 C62.329906,12.3252477 62.3349103,11.6921025 61.9474847,11.2985039 C61.7595144,11.1075386 61.5027677,11 61.2348114,11 Z" id="Path-2" fill="#FFFFFF" transform="translate(53.838135, 20.683838) rotate(-180.000000) translate(-53.838135, -20.683838) "></path>
                <rect id="Rectangle" fill="#FFFFFF" x="10" y="39" width="12" height="2" rx="1"></rect>
                <rect id="Rectangle" fill="#FFFFFF" x="58" y="38" width="12" height="2" rx="1"></rect>
            </g>
        </g>
    </g>
</svg>