<?xml version="1.0" encoding="UTF-8"?>
<svg width="80px" height="80px" viewBox="0 0 80 80" version="1.1" xmlns="http://www.w3.org/2000/svg" xmlns:xlink="http://www.w3.org/1999/xlink">
    <!-- Generator: Sketch 52 (66869) - http://www.bohemiancoding.com/sketch -->
    <title>Black and White Logo</title>
    <desc>Created with Sketch.</desc>
    <g id="Black-and-White-Logo" stroke="none" stroke-width="1" fill="none" fill-rule="evenodd">
        <g transform="translate(-16.500000, -16.500000)">
            <circle id="Oval" fill="#202020" transform="translate(56.568542, 56.568542) rotate(135.000000) translate(-56.568542, -56.568542) " cx="56.5685425" cy="56.5685425" r="40"></circle>
            <g id="Group" stroke-width="1" transform="translate(18.000000, 18.000000)">
                <path d="M38.5620914,65.738562 C23.5529412,65.738562 11.3856208,53.5712417 11.3856208,38.5620914 C11.3856208,23.5529412 23.5529412,11.3856208 38.5620914,11.3856208 C53.5712417,11.3856208 65.738562,23.5529412 65.738562,38.5620914 C65.738562,53.5712417 53.5712417,65.738562 38.5620914,65.738562 Z M38.5620914,54.8679738 C47.5675816,54.8679738 54.8679738,47.5675816 54.8679738,38.5620914 C54.8679738,29.5566013 47.5675816,22.2562091 38.5620914,22.2562091 C29.5566013,22.2562091 22.2562091,29.5566013 22.2562091,38.5620914 C22.2562091,47.5675816 29.5566013,54.8679738 38.5620914,54.8679738 Z" id="Combined-Shape" fill="#FFFFFF" transform="translate(38.562091, 38.562091) rotate(135.000000) translate(-38.562091, -38.562091) "></path>
                <polygon id="Rectangle" fill="#202020" transform="translate(60.340980, 44.967647) rotate(135.000000) translate(-60.340980, -44.967647) " points="50.3762744 36.8147058 70.3056862 36.8147058 70.3056862 53.1205882 50.3762744 53.1205882"></polygon>
                <polygon id="Rectangle" fill="#202020" transform="translate(17.103480, 30.555147) rotate(135.000000) translate(-17.103480, -30.555147) " points="7.59171565 22.4022058 26.6152451 22.4022058 26.6152451 38.7080882 7.59171565 38.7080882"></polygon>
                <polygon id="Rectangle" fill="#202020" transform="translate(15.181814, 26.711814) rotate(135.000000) translate(-15.181814, -26.711814) " points="7.93475487 22.6353431 22.4288725 22.6353431 22.4288725 30.7882843 7.93475487 30.7882843"></polygon>
                <polygon id="Rectangle" fill="#202020" transform="translate(63.864036, 48.490703) rotate(135.000000) translate(-63.864036, -48.490703) " points="56.616977 44.4142319 71.1110947 44.4142319 71.1110947 52.5671731 56.616977 52.5671731"></polygon>
                <path d="M24.8336229,34.0340254 L10.10655,34.0340254 C9.6094937,34.0340254 9.20654996,34.4369691 9.20654996,34.9340254 L9.20654996,49.4301255 C9.20654996,49.9271818 9.6094937,50.3301256 10.10655,50.3301256 C10.3427809,50.3301256 10.569541,50.2372466 10.7378965,50.0715315 L25.4649693,35.5754315 C25.8192081,35.2267484 25.8237119,34.6569177 25.4750289,34.3026789 C25.3058556,34.1308101 25.0747836,34.0340254 24.8336229,34.0340254 Z" id="Path-2" fill="#FFFFFF" transform="translate(17.470087, 42.182075) rotate(45.000000) translate(-17.470087, -42.182075) "></path>
                <path d="M66.2740889,24.1816949 L51.547016,24.1816949 C51.0499597,24.1816949 50.647016,24.5846387 50.647016,25.081695 L50.647016,39.577795 C50.647016,40.0748513 51.0499597,40.4777951 51.547016,40.4777951 C51.783247,40.4777951 52.0100071,40.3849161 52.1783625,40.2192011 L66.9054354,25.723101 C67.2596742,25.3744179 67.264178,24.8045872 66.9154949,24.4503485 C66.7463216,24.2784797 66.5152496,24.1816949 66.2740889,24.1816949 Z" id="Path-2" fill="#FFFFFF" transform="translate(58.910553, 32.329745) rotate(-135.000000) translate(-58.910553, -32.329745) "></path>
                <path d="M18.653464,22.2828758 L27.7240522,22.2828758 C28.2211085,22.2828758 28.6240522,22.6858195 28.6240522,23.1828758 L28.6240522,23.1946404 C28.6240522,23.6916967 28.2211085,24.0946405 27.7240522,24.0946405 L18.653464,24.0946405 C18.1564077,24.0946405 17.753464,23.6916967 17.753464,23.1946404 L17.753464,23.1828758 C17.753464,22.6858195 18.1564077,22.2828758 18.653464,22.2828758 Z" id="Rectangle" fill="#FFFFFF" transform="translate(23.188758, 23.188758) rotate(45.000000) translate(-23.188758, -23.188758) "></path>
                <path d="M50.0406862,52.3889868 L59.1112744,52.3889868 C59.6083307,52.3889868 60.0112744,52.7919306 60.0112744,53.2889869 L60.0112744,53.3007515 C60.0112744,53.7978078 59.6083307,54.2007515 59.1112744,54.2007515 L50.0406862,54.2007515 C49.5436299,54.2007515 49.1406862,53.7978078 49.1406862,53.3007515 L49.1406862,53.2889869 C49.1406862,52.7919306 49.5436299,52.3889868 50.0406862,52.3889868 Z" id="Rectangle" fill="#FFFFFF" transform="translate(54.575980, 53.294869) rotate(45.000000) translate(-54.575980, -53.294869) "></path>
            </g>
        </g>
    </g>
</svg>