<svg width="300" height="223" viewBox="0 0 300 223" fill="none" xmlns="http://www.w3.org/2000/svg">
<g clip-path="url(#clip0)">
<path d="M17.0615 222.435L12.1934 208.804C12.1934 208.804 17.5483 211.482 17.7917 214.889C17.7917 214.889 16.5747 197.851 14.1406 194.2C14.1406 194.2 18.0351 194.687 22.4165 213.672C22.4165 213.672 23.1467 191.766 16.5747 185.437C16.5747 185.437 25.5808 192.739 26.311 208.561V222.435H17.0615Z" fill="#F2F2F2"/>
<path d="M181.446 222.233L184.654 213.249C184.654 213.249 181.125 215.014 180.965 217.26C180.965 217.26 181.767 206.03 183.371 203.624C183.371 203.624 180.804 203.944 177.916 216.458C177.916 216.458 177.435 202.019 181.767 197.848C181.767 197.848 175.831 202.661 175.35 213.089V222.233H181.446Z" fill="#F2F2F2"/>
<path d="M130.086 222.234L127.541 215.109C127.541 215.109 130.34 216.508 130.467 218.29C130.467 218.29 129.831 209.383 128.559 207.475C128.559 207.475 130.595 207.729 132.885 217.653C132.885 217.653 133.267 206.202 129.831 202.894C129.831 202.894 134.539 206.711 134.921 214.981V222.234H130.086Z" fill="#F2F2F2"/>
<path d="M127.255 173.583C125.971 173.583 124.68 173.541 123.409 173.46L123.45 172.82C124.709 172.9 125.987 172.941 127.251 172.941L127.289 172.941V173.582L127.259 173.583L127.255 173.583ZM131.171 173.455L131.129 172.815C132.402 172.732 133.688 172.606 134.952 172.441L135.035 173.077C133.758 173.244 132.458 173.371 131.171 173.455V173.455ZM119.544 173.087C118.264 172.921 116.975 172.711 115.712 172.462L115.836 171.832C117.085 172.079 118.361 172.287 119.627 172.451L119.544 173.087ZM138.867 172.446L138.742 171.817C139.992 171.569 141.251 171.276 142.482 170.946L142.648 171.566C141.403 171.899 140.131 172.195 138.867 172.446V172.446ZM111.929 171.586C110.685 171.255 109.435 170.877 108.211 170.463L108.417 169.856C109.627 170.265 110.864 170.639 112.094 170.966L111.929 171.586ZM146.364 170.438L146.158 169.83C147.362 169.422 148.569 168.967 149.746 168.478L149.992 169.071C148.802 169.564 147.581 170.025 146.364 170.438ZM104.57 169.095C103.38 168.603 102.188 168.063 101.029 167.491L101.312 166.916C102.459 167.481 103.638 168.015 104.816 168.503L104.57 169.095ZM153.524 167.467L153.239 166.891C154.382 166.326 155.52 165.716 156.622 165.079L156.943 165.634C155.83 166.279 154.679 166.895 153.524 167.467V167.467ZM97.6008 165.658C96.4839 165.013 95.3738 164.322 94.3013 163.605L94.6578 163.072C95.719 163.781 96.817 164.465 97.9217 165.103L97.6008 165.658ZM160.236 163.581L159.879 163.048C160.937 162.34 161.986 161.587 162.998 160.809L163.389 161.318C162.366 162.104 161.305 162.866 160.236 163.581V163.581ZM91.1435 161.341C90.1212 160.557 89.1109 159.728 88.1405 158.877L88.5635 158.395C89.5234 159.236 90.5229 160.056 91.5342 160.832L91.1435 161.341ZM166.39 158.853L165.966 158.371C166.924 157.53 167.867 156.646 168.769 155.744L169.223 156.198C168.311 157.109 167.358 158.003 166.39 158.853ZM85.3048 156.223C84.3922 155.312 83.4982 154.359 82.6479 153.391L83.1298 152.968C83.9712 153.925 84.8555 154.868 85.7582 155.769L85.3048 156.223ZM171.879 153.364L171.396 152.941C172.238 151.982 173.059 150.983 173.836 149.971L174.345 150.362C173.559 151.385 172.73 152.394 171.879 153.364ZM80.1811 150.393C79.3953 149.372 78.6329 148.311 77.9154 147.242L78.4484 146.884C79.1581 147.943 79.9123 148.992 80.6897 150.002L80.1811 150.393ZM176.611 147.206L176.078 146.849C176.788 145.788 177.472 144.69 178.111 143.586L178.666 143.908C178.02 145.024 177.329 146.133 176.611 147.206ZM75.8604 143.95C75.2138 142.834 74.5965 141.684 74.0258 140.531L74.6008 140.247C75.1654 141.387 75.7761 142.524 76.4156 143.628L75.8604 143.95ZM180.501 140.481L179.926 140.197C180.491 139.053 181.025 137.875 181.515 136.695L182.107 136.94C181.613 138.134 181.072 139.325 180.501 140.481V140.481ZM72.4196 137.001C71.9252 135.812 71.4641 134.591 71.0493 133.374L71.6568 133.167C72.067 134.371 72.523 135.578 73.0122 136.755L72.4196 137.001ZM183.478 133.301L182.87 133.095C183.28 131.886 183.654 130.65 183.983 129.418L184.603 129.584C184.27 130.829 183.892 132.079 183.478 133.301ZM69.9191 129.659C69.5847 128.414 69.2877 127.142 69.0359 125.877L69.6654 125.752C69.9142 127.003 70.2081 128.261 70.5388 129.492L69.9191 129.659ZM185.481 125.801L184.851 125.677C185.099 124.426 185.308 123.151 185.472 121.886L186.108 121.969C185.942 123.248 185.731 124.537 185.481 125.801ZM68.4035 122.047C68.2357 120.772 68.1075 119.472 68.0223 118.183L68.6628 118.141C68.7469 119.416 68.8738 120.702 69.0397 121.963L68.4035 122.047ZM186.485 118.105L185.844 118.063C185.926 116.796 185.968 115.504 185.968 114.225L185.967 114.072H186.609L186.609 114.222C186.609 115.518 186.567 116.823 186.485 118.105ZM68.5343 114.301H67.8926L67.8927 114.222C67.8927 112.958 67.933 111.678 68.0126 110.421L68.653 110.462C68.5744 111.706 68.5344 112.972 68.5344 114.225L68.5343 114.301ZM185.834 110.233C185.749 108.96 185.621 107.675 185.453 106.411L186.089 106.327C186.259 107.604 186.388 108.904 186.475 110.19L185.834 110.233ZM69.0199 106.638L68.3836 106.556C68.5484 105.278 68.758 103.988 69.0062 102.723L69.636 102.847C69.3903 104.098 69.183 105.373 69.0199 106.638ZM184.822 102.623C184.571 101.373 184.276 100.115 183.943 98.8837L184.563 98.7164C184.899 99.9615 185.198 101.233 185.451 102.497L184.822 102.623ZM70.4995 99.1043L69.8794 98.9395C70.2106 97.6928 70.5877 96.4418 71.0001 95.2213L71.6079 95.4266C71.2001 96.6337 70.8273 97.8711 70.4995 99.1043ZM182.821 95.2105C182.409 94.0054 181.951 92.7991 181.461 91.6249L182.053 91.3776C182.549 92.5649 183.011 93.7845 183.428 95.0028L182.821 95.2105ZM72.9583 91.8248L72.3651 91.5797C72.8577 90.3875 73.3966 89.1956 73.967 88.037L74.5426 88.3206C73.9785 89.4664 73.4453 90.6454 72.9583 91.8248ZM179.867 88.1349C179.303 86.9974 178.691 85.8606 178.048 84.7558L178.603 84.4333C179.253 85.5501 179.871 86.6995 180.442 87.8495L179.867 88.1349ZM76.3537 84.9283L75.7979 84.6077C76.4419 83.4911 77.1319 82.3805 77.8488 81.3069L78.3824 81.6631C77.6733 82.7253 76.9907 83.8239 76.3537 84.9283V84.9283ZM176.012 81.5019C175.3 80.4432 174.544 79.3952 173.766 78.3871L174.274 77.9951C175.061 79.0142 175.824 80.0736 176.544 81.1438L176.012 81.5019ZM80.6199 78.5379L80.1106 78.1475C80.8952 77.124 81.7237 76.113 82.573 75.1429L83.0558 75.5656C82.2156 76.5254 81.3961 77.5254 80.6199 78.5379V78.5379ZM171.322 75.4243C170.48 74.4688 169.595 73.5274 168.69 72.6261L169.143 72.1714C170.057 73.0824 170.953 74.0342 171.803 75L171.322 75.4243ZM85.6792 72.7585L85.2249 72.3054C86.1354 71.3926 87.0877 70.4981 88.0551 69.6467L88.479 70.1283C87.5219 70.9707 86.5799 71.8556 85.6792 72.7585V72.7585ZM165.881 70.0045C164.92 69.164 163.92 68.3451 162.908 67.5706L163.298 67.0611C164.321 67.8439 165.332 68.6718 166.304 69.5214L165.881 70.0045ZM91.4433 67.6863L91.0517 67.1781C92.0722 66.3916 93.1322 65.6287 94.2019 64.9103L94.5598 65.443C93.5015 66.1537 92.4529 66.9085 91.4433 67.6863V67.6863ZM159.781 65.3351C158.719 64.6272 157.62 63.9454 156.515 63.3084L156.835 62.7522C157.953 63.3963 159.064 64.0856 160.137 64.8011L159.781 65.3351ZM97.8149 63.4081L97.4927 62.8531C98.6059 62.2069 99.7555 61.5888 100.91 61.0162L101.195 61.5912C100.053 62.1575 98.9161 62.7688 97.8149 63.4081V63.4081ZM153.121 61.4995C151.975 60.936 150.796 60.4038 149.616 59.9173L149.861 59.3242C151.053 59.8158 152.246 60.354 153.404 60.9236L153.121 61.4995ZM104.686 60.0002L104.439 59.4079C105.628 58.9126 106.848 58.4508 108.065 58.0353L108.273 58.6425C107.069 59.0536 105.862 59.5105 104.686 60.0002ZM146.013 58.5692C144.805 58.162 143.567 57.7899 142.335 57.4633L142.499 56.8429C143.745 57.1731 144.996 57.5493 146.218 57.961L146.013 58.5692ZM111.947 57.5223L111.78 56.9026C113.024 56.5676 114.296 56.2698 115.56 56.0171L115.686 56.6463C114.435 56.8963 113.177 57.191 111.947 57.5224L111.947 57.5223ZM138.591 56.6022C137.342 56.3577 136.066 56.1513 134.8 55.9887L134.882 55.3523C136.161 55.5165 137.451 55.7252 138.715 55.9724L138.591 56.6022ZM119.475 56.0182L119.391 55.3821C120.666 55.2135 121.966 55.0844 123.255 54.9986L123.297 55.6389C122.022 55.7238 120.736 55.8515 119.475 56.0182V56.0182ZM130.976 55.6242C129.745 55.5471 128.491 55.5079 127.251 55.5079L127.137 55.5081V54.8664L127.25 54.8662C128.505 54.8662 129.772 54.9057 131.017 54.9837L130.976 55.6242Z" fill="#ABABAB"/>
<path d="M222.227 118.716C220.944 118.716 219.653 118.675 218.382 118.594L218.422 117.954C219.681 118.034 220.96 118.075 222.224 118.075L222.262 118.074V118.716L222.232 118.716L222.227 118.716ZM226.144 118.589L226.102 117.948C227.374 117.865 228.661 117.739 229.924 117.574L230.008 118.21C228.73 118.378 227.43 118.505 226.144 118.589ZM214.517 118.221C213.237 118.055 211.948 117.845 210.684 117.596L210.808 116.966C212.058 117.212 213.334 117.42 214.599 117.584L214.517 118.221ZM233.839 117.58L233.714 116.951C234.965 116.703 236.223 116.41 237.455 116.08L237.621 116.7C236.376 117.033 235.103 117.329 233.839 117.58V117.58ZM206.901 116.72C205.658 116.389 204.407 116.011 203.184 115.597L203.39 114.989C204.6 115.399 205.837 115.772 207.067 116.1L206.901 116.72ZM241.337 115.572L241.131 114.964C242.334 114.555 243.541 114.1 244.718 113.612L244.965 114.204C243.774 114.698 242.554 115.158 241.337 115.572ZM199.543 114.229C198.352 113.737 197.161 113.197 196.001 112.625L196.285 112.05C197.432 112.615 198.611 113.149 199.788 113.636L199.543 114.229ZM248.496 112.6L248.212 112.025C249.355 111.46 250.493 110.85 251.594 110.213L251.916 110.768C250.802 111.413 249.652 112.029 248.496 112.6V112.6ZM192.574 110.792C191.457 110.147 190.346 109.456 189.274 108.739L189.631 108.206C190.692 108.915 191.79 109.598 192.894 110.236L192.574 110.792ZM255.209 108.715L254.852 108.182C255.91 107.474 256.959 106.721 257.971 105.943L258.362 106.452C257.339 107.238 256.278 107.999 255.209 108.715V108.715ZM186.116 106.475C185.094 105.69 184.084 104.861 183.113 104.011L183.536 103.528C184.496 104.37 185.496 105.19 186.507 105.966L186.116 106.475ZM261.362 103.987L260.939 103.504C261.897 102.663 262.84 101.78 263.742 100.878L264.196 101.332C263.284 102.243 262.331 103.136 261.362 103.987ZM180.277 101.357C179.365 100.446 178.471 99.4931 177.621 98.5252L178.102 98.1016C178.944 99.059 179.828 100.002 180.731 100.903L180.277 101.357ZM266.852 98.4977L266.369 98.0743C267.211 97.1154 268.032 96.1165 268.809 95.1052L269.318 95.4962C268.532 96.5185 267.702 97.5282 266.852 98.4977V98.4977ZM175.154 95.5269C174.368 94.5056 173.606 93.4453 172.888 92.3754L173.421 92.0179C174.131 93.0765 174.885 94.1254 175.662 95.1356L175.154 95.5269ZM271.584 92.3397L271.05 91.9828C271.76 90.9218 272.444 89.8242 273.083 88.72L273.638 89.0415C272.993 90.1576 272.301 91.2673 271.584 92.3397V92.3397ZM170.833 89.0835C170.186 87.968 169.569 86.8179 168.998 85.6652L169.573 85.3803C170.138 86.5206 170.749 87.6583 171.388 88.7617L170.833 89.0835ZM275.474 85.6149L274.898 85.3307C275.463 84.1871 275.998 83.0089 276.487 81.8285L277.08 82.0742C276.585 83.2675 276.045 84.4588 275.474 85.6149V85.6149ZM167.392 82.1346C166.898 80.9455 166.437 79.7253 166.022 78.5076L166.629 78.3008C167.04 79.505 167.496 80.7121 167.985 81.8884L167.392 82.1346ZM278.451 78.4343L277.843 78.2285C278.252 77.0202 278.627 75.7833 278.956 74.5519L279.576 74.7177C279.243 75.9624 278.865 77.2129 278.451 78.4343ZM164.892 74.7926C164.557 73.5477 164.26 72.2754 164.009 71.0112L164.638 70.8859C164.887 72.1364 165.181 73.3948 165.512 74.6262L164.892 74.7926ZM280.453 70.9349L279.824 70.8105C280.071 69.56 280.28 68.2847 280.445 67.0201L281.081 67.1032C280.915 68.3816 280.703 69.6708 280.453 70.9349ZM163.376 67.1804C163.208 65.9056 163.08 64.6057 162.995 63.3166L163.635 63.2743C163.72 64.5496 163.846 65.8356 164.012 67.0967L163.376 67.1804ZM281.457 63.2386L280.817 63.1973C280.899 61.9294 280.94 60.6378 280.94 59.3583L280.94 59.206H281.582L281.582 59.3563C281.582 60.6514 281.54 61.9569 281.457 63.2386V63.2386ZM163.507 59.4349H162.865L162.865 59.3562C162.865 58.0919 162.906 56.8123 162.985 55.5549L163.626 55.5953C163.547 56.8394 163.507 58.1054 163.507 59.3583L163.507 59.4349ZM280.807 55.3672C280.722 54.0942 280.593 52.8083 280.425 51.5453L281.061 51.4607C281.231 52.7377 281.361 54.0375 281.447 55.3242L280.807 55.3672ZM163.993 51.7718L163.356 51.6897C163.521 50.4113 163.731 49.1218 163.979 47.857L164.609 47.9808C164.363 49.2316 164.156 50.5072 163.993 51.7718ZM279.794 47.7566C279.544 46.5068 279.248 45.2489 278.916 44.0175L279.536 43.8502C279.872 45.0953 280.17 46.3671 280.423 47.6306L279.794 47.7566ZM165.472 44.2381L164.852 44.0733C165.183 42.8265 165.56 41.5756 165.973 40.3551L166.581 40.5603C166.173 41.7675 165.8 43.0048 165.472 44.2381ZM277.793 40.3443C277.381 39.1392 276.924 37.9329 276.433 36.7587L277.026 36.5114C277.521 37.6987 277.984 38.9183 278.4 40.1366L277.793 40.3443ZM167.931 36.9586L167.338 36.7135C167.83 35.5213 168.369 34.3294 168.94 33.1708L169.515 33.4544C168.951 34.6002 168.418 35.7792 167.931 36.9586ZM274.84 33.2687C274.275 32.1312 273.663 30.9944 273.021 29.8896L273.576 29.5671C274.225 30.6839 274.844 31.8333 275.415 32.9833L274.84 33.2687ZM171.326 30.062L170.771 29.7415C171.415 28.6249 172.105 27.5143 172.821 26.4407L173.355 26.7969C172.646 27.8591 171.963 28.9577 171.326 30.062ZM270.984 26.6357C270.272 25.577 269.517 24.529 268.739 23.5209L269.247 23.1289C270.033 24.148 270.797 25.2074 271.517 26.2776L270.984 26.6357ZM175.593 23.6717L175.083 23.2813C175.868 22.2578 176.696 21.2468 177.546 20.2767L178.028 20.6994C177.188 21.6592 176.369 22.6592 175.593 23.6717V23.6717ZM266.295 20.5581C265.453 19.6026 264.568 18.6612 263.663 17.7599L264.116 17.3052C265.03 18.2162 265.925 19.168 266.776 20.1338L266.295 20.5581ZM180.652 17.8922L180.198 17.4392C181.108 16.5264 182.06 15.6318 183.028 14.7805L183.452 15.2621C182.495 16.1045 181.553 16.9894 180.652 17.8922V17.8922ZM260.854 15.1383C259.893 14.2978 258.892 13.4789 257.88 12.7044L258.27 12.1949C259.293 12.9777 260.305 13.8056 261.276 14.6552L260.854 15.1383ZM186.416 12.8201L186.024 12.3119C187.045 11.5254 188.105 10.7624 189.175 10.0441L189.532 10.5768C188.474 11.2874 187.426 12.0423 186.416 12.8201V12.8201ZM254.754 10.4689C253.692 9.76103 252.593 9.07921 251.487 8.4422L251.807 7.88603C252.925 8.5301 254.036 9.21943 255.11 9.93493L254.754 10.4689ZM192.788 8.54184L192.465 7.98693C193.579 7.34067 194.728 6.72262 195.882 6.15L196.168 6.72497C195.026 7.29132 193.889 7.90264 192.788 8.54184V8.54184ZM248.094 6.63332C246.948 6.06979 245.768 5.5376 244.589 5.05113L244.833 4.45799C246.026 4.94961 247.218 5.48776 248.377 6.05741L248.094 6.63332ZM199.659 5.13401L199.412 4.54164C200.601 4.04642 201.821 3.58456 203.038 3.16908L203.245 3.77632C202.041 4.18742 200.835 4.64426 199.659 5.13401ZM240.986 3.70299C239.778 3.29582 238.54 2.92372 237.307 2.59707L237.472 1.97667C238.718 2.30692 239.969 2.68308 241.191 3.0948L240.986 3.70299ZM206.919 2.65614L206.753 2.03636C207.997 1.70138 209.269 1.40358 210.533 1.15087L210.659 1.78005C209.408 2.0301 208.15 2.3248 206.919 2.65615V2.65614ZM233.564 1.73603C232.314 1.49147 231.039 1.28514 229.773 1.12251L229.854 0.486128C231.134 0.650316 232.424 0.858999 233.688 1.10622L233.564 1.73603ZM214.448 1.15197L214.364 0.515897C215.638 0.347323 216.938 0.218227 218.228 0.132372L218.27 0.772676C216.995 0.857603 215.709 0.98528 214.448 1.15198V1.15197ZM225.949 0.757959C224.717 0.68088 223.464 0.641711 222.224 0.641711L222.109 0.641865V0.00015422L222.223 0C223.477 0 224.744 0.0394655 225.989 0.117501L225.949 0.757959Z" fill="#E6E6E6"/>
<path d="M71.9124 43.7183H71.9124C63.019 43.7183 56.5446 49.7569 54.362 58.3782L51.6562 71.3118H53.5814L57.7525 60.7236L56.8744 71.3118H59.0359L60.6402 65.8573L60.3025 71.3118H86.3087V58.1145C86.3087 56.2239 85.9363 54.3519 85.2128 52.6053C84.4893 50.8587 83.4289 49.2716 82.0921 47.9348C80.7553 46.598 79.1682 45.5376 77.4216 44.8141C75.675 44.0906 73.803 43.7183 71.9124 43.7183V43.7183Z" fill="#2F2E41"/>
<path d="M68.1811 60.5635C68.1811 60.5635 69.4645 68.264 66.256 69.5474C63.0474 70.8309 62.7266 70.8309 62.7266 70.8309L68.502 88.4779L75.5608 90.7239L83.2613 69.8683L79.7319 68.264C79.7319 68.264 76.2025 63.4512 77.4859 60.5635H68.1811Z" fill="#A0616A"/>
<path d="M56.9514 121.205C56.9514 121.205 50.5343 128.906 52.1386 155.537L51.8177 163.237C51.8177 163.237 35.1332 206.553 46.0423 208.799C56.9514 211.045 57.914 212.649 58.8765 210.082C59.8391 207.515 75.2402 148.478 75.2402 148.478C75.2402 148.478 87.7536 209.761 93.8498 209.12C99.9461 208.478 107.967 210.403 107.647 205.59C107.326 200.777 99.9461 163.879 99.9461 163.879C99.9461 163.879 98.3418 119.922 89.9995 117.355C81.6573 114.788 64.6519 113.826 56.9514 121.205Z" fill="#2F2E41"/>
<path d="M48.61 206.553L45.7223 213.932C45.7223 213.932 40.5886 220.991 43.7972 221.954C47.0057 222.916 51.4977 220.35 51.4977 220.35C51.4977 220.35 54.0645 210.724 54.0645 208.157L48.61 206.553Z" fill="#2F2E41"/>
<path d="M101.871 206.553L104.758 213.932C104.758 213.932 109.892 220.991 106.683 221.954C103.475 222.916 98.9829 220.35 98.9829 220.35C98.9829 220.35 96.416 210.724 96.416 208.157L101.871 206.553Z" fill="#2F2E41"/>
<path d="M72.3534 64.4134C76.7835 64.4134 80.3748 60.8221 80.3748 56.392C80.3748 51.9619 76.7835 48.3706 72.3534 48.3706C67.9233 48.3706 64.332 51.9619 64.332 56.392C64.332 60.8221 67.9233 64.4134 72.3534 64.4134Z" fill="#A0616A"/>
<path d="M73.6367 82.3817C73.6367 82.3817 66.5778 79.1731 63.6901 69.8683L58.5565 71.4726C58.5565 71.4726 60.1607 81.74 59.1982 83.986C59.1982 83.986 57.9147 116.392 58.5565 117.034C59.1982 117.676 53.4228 123.13 55.3479 123.772C57.273 124.414 67.5404 122.81 66.257 120.884L64.9736 118.959L86.7917 119.28C86.7917 119.28 85.1875 123.772 89.6794 123.772C94.1714 123.772 91.6046 115.109 91.6046 115.109L88.7169 85.2694C88.7169 85.2694 85.5083 74.3603 86.4709 70.51L81.9789 68.9058C81.9789 68.9058 79.4121 78.2106 73.6367 82.3817Z" fill="#3F3D56"/>
<path d="M66.9283 51.9787L66.6581 54.5456H73.9871L74.9497 52.6205L74.7472 54.5456H83.6128L77.5165 44.9199L64.0406 45.2408L60.832 54.5456H65.6449L66.9283 51.9787Z" fill="#2F2E41"/>
<path d="M212.085 66.8198H128.342V114.306H212.085V66.8198Z" fill="#F2F2F2"/>
<path d="M145.829 85.4294C150.082 85.4294 153.53 81.9817 153.53 77.7289C153.53 73.476 150.082 70.0283 145.829 70.0283C141.577 70.0283 138.129 73.476 138.129 77.7289C138.129 81.9817 141.577 85.4294 145.829 85.4294Z" fill="white"/>
<path d="M202.3 76.4458H158.021V79.0126H202.3V76.4458Z" fill="white"/>
<path d="M202.3 82.8628H158.021V85.4296H202.3V82.8628Z" fill="white"/>
<path d="M202.3 89.2798H138.129V91.8466H202.3V89.2798Z" fill="white"/>
<path d="M202.3 95.6963H138.129V98.2631H202.3V95.6963Z" fill="white"/>
<path d="M202.3 102.114H138.129V104.681H202.3V102.114Z" fill="white"/>
<path d="M202.3 108.531H138.129V111.098H202.3V108.531Z" fill="white"/>
<path d="M182.056 114.627H128.021V66.499H212.407V85.4128H211.765V67.1407H128.663V113.986H182.056V114.627Z" fill="#3F3D56"/>
<path d="M114.544 134.841H30.8008V182.328H114.544V134.841Z" fill="#F2F2F2"/>
<path d="M84.8361 182.649H30.8008V134.521H115.186V153.435H114.544V135.163H31.4425V182.008H84.8361V182.649Z" fill="#3F3D56"/>
<path d="M59.3571 71.3117C59.3571 71.3117 52.6192 70.9908 52.6192 76.4453C52.6192 81.8999 53.2609 99.2261 53.2609 99.2261L53.9026 104.681L53.5817 126.82C53.5817 126.82 47.4855 140.616 51.6566 140.937C55.8277 141.258 58.0737 128.424 58.0737 128.424L59.3571 116.873C59.3571 116.873 58.555 85.5897 59.5176 84.3063L59.3571 71.3117Z" fill="#A0616A"/>
<path d="M86.3089 70.3497C86.3089 70.3497 93.0468 70.0289 93.0468 75.4834C93.0468 80.938 92.4051 98.2642 92.4051 98.2642L91.7634 103.719L92.0843 125.858C92.0843 125.858 98.1805 139.655 94.0094 139.975C89.8383 140.296 87.5923 127.462 87.5923 127.462L86.3089 115.911C86.3089 115.911 87.111 84.6278 86.1484 83.3444L86.3089 70.3497Z" fill="#A0616A"/>
<path d="M215.936 50.7769L299.68 50.7769V3.29023L215.936 3.29023V50.7769Z" fill="#F2F2F2"/>
<path d="M299.998 51.0981H245.963V50.4564H299.357V3.61144H216.255V21.8832H215.613V2.96973H299.998V51.0981Z" fill="#3F3D56"/>
<path d="M290.054 8.42432H225.883V10.9912H290.054V8.42432Z" fill="white"/>
<path d="M290.054 14.1997H225.883V16.7666H290.054V14.1997Z" fill="white"/>
<path d="M290.054 19.9751H225.883V22.5419H290.054V19.9751Z" fill="white"/>
<path d="M290.054 25.75H225.883V28.3168H290.054V25.75Z" fill="white"/>
<path d="M290.054 31.5254H225.883V34.0922H290.054V31.5254Z" fill="white"/>
<path d="M290.055 38.585H276.258V45.9646H290.055V38.585Z" fill="white"/>
<path d="M256.364 221.793H0V222.435H256.364V221.793Z" fill="#2F2E41"/>
<path d="M210.804 119.119C214.348 119.119 217.221 116.246 217.221 112.702C217.221 109.158 214.348 106.285 210.804 106.285C207.26 106.285 204.387 109.158 204.387 112.702C204.387 116.246 207.26 119.119 210.804 119.119Z" fill="#4E064F"/>
<path d="M215.128 112.284H211.221V108.377H210.385V112.284H206.479V113.121H210.385V117.027H211.221V113.121H215.128V112.284Z" fill="white"/>
<path d="M214.331 56.2317C217.875 56.2317 220.748 53.3586 220.748 49.8146C220.748 46.2705 217.875 43.3975 214.331 43.3975C210.787 43.3975 207.914 46.2705 207.914 49.8146C207.914 53.3586 210.787 56.2317 214.331 56.2317Z" fill="#4E064F"/>
<path d="M218.657 49.3963H214.751V45.4902H213.914V49.3963H210.008V50.2334H213.914V54.1395H214.751V50.2334H218.657V49.3963Z" fill="white"/>
<g clip-path="url(#clip1)">
<path d="M62.4185 148.419C56.5606 154.277 56.5606 163.775 62.4185 169.632C68.2763 175.49 77.7738 175.49 83.6317 169.632C89.4895 163.775 89.4895 154.277 83.6317 148.419C77.7738 142.561 68.2763 142.561 62.4185 148.419Z" fill="#4E064F"/>
<path fill-rule="evenodd" clip-rule="evenodd" d="M65.8148 151.817C69.7947 147.837 76.2474 147.837 80.2273 151.817C84.2072 155.797 84.2072 162.25 80.2273 166.23C76.2474 170.21 69.7947 170.21 65.8148 166.23C61.8349 162.25 61.8349 155.797 65.8148 151.817ZM68.6973 154.7C66.3094 157.088 66.3094 160.959 68.6973 163.347C71.0853 165.735 74.9569 165.735 77.3448 163.347C79.7328 160.959 79.7328 157.088 77.3448 154.7C74.9569 152.312 71.0853 152.312 68.6973 154.7Z" fill="white"/>
<path fill-rule="evenodd" clip-rule="evenodd" d="M85.9941 160.945L80.7096 166.229L76.3858 161.906L81.6704 156.621L85.9941 160.945Z" fill="#4E064F"/>
<path fill-rule="evenodd" clip-rule="evenodd" d="M69.6582 155.66L64.6138 160.705L60.2901 156.381L65.3345 151.336L69.6582 155.66Z" fill="#4E064F"/>
<path fill-rule="evenodd" clip-rule="evenodd" d="M67.2578 153.739L63.4145 157.582L61.2526 155.42L65.0959 151.577L67.2578 153.739Z" fill="#4E064F"/>
<path fill-rule="evenodd" clip-rule="evenodd" d="M85.5137 161.906L81.6703 165.749L79.5085 163.587L83.3518 159.744L85.5137 161.906Z" fill="#4E064F"/>
<path fill-rule="evenodd" clip-rule="evenodd" d="M69.2258 160.173L65.3207 156.267C65.1889 156.136 64.9752 156.136 64.8434 156.267L60.9995 160.111C60.8677 160.243 60.8677 160.457 60.9995 160.589C61.0622 160.651 61.1469 160.687 61.2355 160.687L68.9845 160.749C69.1709 160.75 69.3232 160.6 69.3246 160.414C69.3253 160.323 69.2897 160.237 69.2258 160.173Z" fill="white"/>
<path fill-rule="evenodd" clip-rule="evenodd" d="M76.5398 156.894L80.4449 160.799C80.5767 160.931 80.7904 160.931 80.9222 160.799L84.7661 156.956C84.8979 156.824 84.8979 156.61 84.7661 156.478C84.7035 156.416 84.6187 156.38 84.5301 156.379L76.7812 156.318C76.5948 156.317 76.4425 156.467 76.441 156.653C76.4403 156.743 76.4759 156.83 76.5398 156.894Z" fill="white"/>
<path fill-rule="evenodd" clip-rule="evenodd" d="M66.2953 151.815L68.7005 154.221C68.8323 154.352 68.8323 154.566 68.7005 154.698L68.6974 154.701C68.5656 154.833 68.3519 154.833 68.2201 154.701L65.8149 152.296C65.6831 152.164 65.6831 151.95 65.8149 151.818L65.818 151.815C65.9498 151.684 66.1635 151.684 66.2953 151.815Z" fill="white"/>
<path fill-rule="evenodd" clip-rule="evenodd" d="M78.0648 163.105L80.47 165.511C80.6018 165.642 80.6018 165.856 80.47 165.988L80.4669 165.991C80.3351 166.123 80.1214 166.123 79.9896 165.991L77.5844 163.586C77.4526 163.454 77.4526 163.24 77.5844 163.108L77.5875 163.105C77.7193 162.974 77.933 162.974 78.0648 163.105Z" fill="white"/>
</g>
</g>
<defs>
<clipPath id="clip0">
<rect width="300" height="222.435" fill="white"/>
</clipPath>
<clipPath id="clip1">
<rect width="30" height="30" fill="white" transform="translate(58 144)"/>
</clipPath>
</defs>
</svg>
