<svg width="300" height="252" viewBox="0 0 300 252" fill="none" xmlns="http://www.w3.org/2000/svg">
<g clip-path="url(#clip0)">
<path d="M84.6089 251.006C129.061 251.006 165.097 245.451 165.097 238.599C165.097 231.746 129.061 226.191 84.6089 226.191C40.1567 226.191 4.12109 231.746 4.12109 238.599C4.12109 245.451 40.1567 251.006 84.6089 251.006Z" fill="#E5E5E5"/>
<path d="M62.3512 56.9482H17.8125V57.5845H62.3512V56.9482Z" fill="#E5E5E5"/>
<path d="M30.5386 51.2207H29.9023V57.1062H30.5386V51.2207Z" fill="#E5E5E5"/>
<path d="M49.9527 51.2207H49.3164V57.1062H49.9527V51.2207Z" fill="#E5E5E5"/>
<path d="M181.98 39.4482H137.441V40.0845H181.98V39.4482Z" fill="#E5E5E5"/>
<path d="M150.168 33.7207H149.531V39.6062H150.168V33.7207Z" fill="#E5E5E5"/>
<path d="M169.562 33.7207H168.926V39.6062H169.562V33.7207Z" fill="#E5E5E5"/>
<path d="M207.097 216.65H162.559V217.287H207.097V216.65Z" fill="#E5E5E5"/>
<path d="M175.304 210.923H174.668V216.808H175.304V210.923Z" fill="#E5E5E5"/>
<path d="M194.699 210.923H194.062V216.808H194.699V210.923Z" fill="#E5E5E5"/>
<path d="M296.492 188.018H251.953V188.654H296.492V188.018Z" fill="#E5E5E5"/>
<path d="M264.679 182.29H264.043V188.175H264.679V182.29Z" fill="#E5E5E5"/>
<path d="M284.093 182.29H283.457V188.175H284.093V182.29Z" fill="#E5E5E5"/>
<path d="M300.007 115.161H255.469V115.797H300.007V115.161Z" fill="#E5E5E5"/>
<path d="M268.195 109.438H267.559V115.324H268.195V109.438Z" fill="#E5E5E5"/>
<path d="M287.589 109.438H286.953V115.324H287.589V109.438Z" fill="#E5E5E5"/>
<path d="M141.882 122.163H97.3438V122.799H141.882V122.163Z" fill="#E5E5E5"/>
<path d="M110.07 116.436H109.434V122.321H110.07V116.436Z" fill="#E5E5E5"/>
<path d="M129.484 116.436H128.848V122.321H129.484V116.436Z" fill="#E5E5E5"/>
<path d="M252.605 169.883H208.066V170.519H252.605V169.883Z" fill="#E5E5E5"/>
<path d="M220.773 164.155H220.137V170.041H220.773V164.155Z" fill="#E5E5E5"/>
<path d="M240.187 164.155H239.551V170.041H240.187V164.155Z" fill="#E5E5E5"/>
<path d="M189.929 149.839H145.391V150.475H189.929V149.839Z" fill="#E5E5E5"/>
<path d="M158.117 144.111H157.48V149.997H158.117V144.111Z" fill="#E5E5E5"/>
<path d="M177.531 144.111H176.895V149.997H177.531V144.111Z" fill="#E5E5E5"/>
<path d="M129.168 86.8506H84.6289V87.4869H129.168V86.8506Z" fill="#E5E5E5"/>
<path d="M97.355 81.123H96.7188V87.0085H97.355V81.123Z" fill="#E5E5E5"/>
<path d="M116.75 81.123H116.113V87.0085H116.75V81.123Z" fill="#E5E5E5"/>
<path d="M44.5387 156.201H0V156.837H44.5387V156.201Z" fill="#E5E5E5"/>
<path d="M12.7261 150.474H12.0898V156.359H12.7261V150.474Z" fill="#E5E5E5"/>
<path d="M32.1402 150.474H31.5039V156.359H32.1402V150.474Z" fill="#E5E5E5"/>
<path d="M230.313 136.797C268.088 136.797 298.711 106.174 298.711 68.3987C298.711 30.6232 268.088 0 230.313 0C192.537 0 161.914 30.6232 161.914 68.3987C161.914 106.174 192.537 136.797 230.313 136.797Z" fill="white"/>
<path d="M20.9705 104.275L20.3516 104.424L35.7741 168.732L36.3929 168.583L20.9705 104.275Z" fill="#2F2E41"/>
<path d="M90.1822 148.091C90.1822 148.091 103.226 153.499 99.0899 156.68C94.9542 159.862 86.3646 152.863 86.6827 151.908C87.0008 150.954 85.4102 148.727 85.4102 148.727L90.1822 148.091Z" fill="#9F616A"/>
<path d="M78.7196 105.459L82.8553 109.277L83.8097 120.411L86.9911 132.182C86.9911 132.182 92.3993 143.317 91.4449 145.544C90.4905 147.771 92.3993 148.407 92.3993 148.407L85.0822 151.27C85.0822 151.27 77.1289 142.362 77.1289 140.454C77.1289 138.545 78.7196 105.459 78.7196 105.459Z" fill="#575A88"/>
<path opacity="0.1" d="M78.7196 105.459L82.8553 109.277L83.8097 120.411L86.9911 132.182C86.9911 132.182 92.3993 143.317 91.4449 145.544C90.4905 147.771 92.3993 148.407 92.3993 148.407L85.0822 151.27C85.0822 151.27 77.1289 142.362 77.1289 140.454C77.1289 138.545 78.7196 105.459 78.7196 105.459Z" fill="black"/>
<path d="M117.858 219.992C117.858 219.992 116.267 227.309 115.949 227.945C115.631 228.582 121.994 230.809 121.994 230.809L129.629 225.4C129.629 225.4 126.447 218.401 126.447 217.129L117.858 219.992Z" fill="#575A88"/>
<path d="M76.1747 148.726L78.4017 151.271C78.4017 151.271 124.531 156.997 125.485 165.905C126.44 174.813 133.121 216.806 129.303 218.079C125.485 219.351 115.623 224.123 115.623 221.578C115.623 219.033 109.261 184.038 110.533 177.676C110.533 177.676 55.496 170.677 54.2235 162.723C52.951 154.77 55.496 151.271 55.496 151.271L76.1747 148.726Z" fill="#2F2E41"/>
<path opacity="0.1" d="M76.1747 148.726L78.4017 151.271C78.4017 151.271 124.531 156.997 125.485 165.905C126.44 174.813 133.121 216.806 129.303 218.079C125.485 219.351 115.623 224.123 115.623 221.578C115.623 219.033 109.261 184.038 110.533 177.676C110.533 177.676 55.496 170.677 54.2235 162.723C52.951 154.77 55.496 151.271 55.496 151.271L76.1747 148.726Z" fill="black"/>
<path d="M117.224 227.306C117.224 227.306 115.951 224.443 115.315 225.397C114.679 226.352 112.452 237.486 114.679 237.486C116.906 237.486 137.266 242.576 140.129 241.94C142.993 241.304 148.401 242.258 147.765 239.077C147.128 235.896 143.947 235.577 143.947 235.577C143.947 235.577 132.176 228.578 131.54 225.079C130.903 221.58 127.404 223.488 127.404 223.488V225.715C127.404 225.715 120.723 230.805 117.224 227.306Z" fill="#2F2E41"/>
<path d="M56.7686 81.2837C56.7686 81.2837 58.9955 92.1002 54.2235 93.0546C49.4515 94.009 60.268 100.372 60.268 100.372L67.267 104.189L72.3571 99.0992C72.3571 99.0992 67.7442 89.7142 71.2437 82.7153C74.7431 75.7163 56.7686 81.2837 56.7686 81.2837Z" fill="#9F616A"/>
<path d="M72.3571 99.0992L67.267 104.189L60.268 100.372C60.268 100.372 49.4515 94.009 54.2235 93.0546C57.2935 92.4406 57.4653 87.745 57.2012 84.4746C57.1151 83.4039 56.9706 82.3387 56.7686 81.2837C56.7686 81.2837 74.7431 75.7163 71.2437 82.7153C70.7119 83.7961 70.3432 84.9496 70.1493 86.1384C69.0771 92.4279 72.3571 99.0992 72.3571 99.0992Z" fill="#9F616A"/>
<path d="M90.1758 229.217V236.534H102.265L103.219 233.67L101.947 226.035L90.1758 229.217Z" fill="#575A88"/>
<path d="M40.2344 155.092C40.2344 155.092 40.2344 173.862 47.8696 174.498C55.5048 175.134 82.8643 178.634 82.8643 178.634C82.8643 178.634 84.4549 209.811 87.3181 219.991C90.1813 230.171 87.6363 230.808 90.1813 231.444C92.7264 232.08 103.543 229.853 103.225 227.626C102.907 225.399 101.634 169.09 101.634 169.09C101.634 169.09 104.497 157.001 66.3213 151.274L40.2344 155.092Z" fill="#2F2E41"/>
<path d="M91.1248 234.304C91.1248 234.304 89.216 230.168 88.8978 231.441C88.5797 232.713 84.7621 243.848 88.5797 244.802C92.3973 245.757 104.486 250.847 112.44 250.529C120.393 250.21 121.348 249.892 121.348 249.892C121.348 249.892 123.574 246.711 120.711 244.802C117.848 242.893 106.077 231.759 105.441 230.486C104.805 229.214 100.033 228.259 100.033 230.486C100.033 232.713 93.3517 237.167 91.1248 234.304Z" fill="#2F2E41"/>
<path opacity="0.1" d="M71.2524 82.7153C70.7207 83.7961 70.3519 84.9496 70.1581 86.1384C68.5737 87.096 67.5143 86.851 65.526 86.851C62.5769 86.851 61.3871 83.0811 59.4815 81.1246C59.332 79.3081 56.7773 81.2837 56.7773 81.2837C56.7773 81.2837 74.7519 75.7163 71.2524 82.7153Z" fill="black"/>
<path d="M64.7171 86.6951C70.5153 86.6951 75.2155 81.9948 75.2155 76.1967C75.2155 70.3985 70.5153 65.6982 64.7171 65.6982C58.919 65.6982 54.2188 70.3985 54.2188 76.1967C54.2188 81.9948 58.919 86.6951 64.7171 86.6951Z" fill="#9F616A"/>
<path d="M82.8574 109.278C82.8574 109.278 81.2668 120.731 80.3124 124.866C79.358 129.002 78.0854 148.09 77.4492 150.635C76.8129 153.18 72.9953 153.816 65.3601 152.862C64.8808 152.802 64.3987 152.766 63.9158 152.754C59.2138 152.604 53.8341 154.364 48.8553 155.744C45.9921 156.54 43.2594 157.208 40.8638 157.316C37.2371 157.481 36.1745 153.46 36.2986 149.108C36.4163 145.058 37.5648 140.716 38.6369 139.182C40.568 136.421 38.6687 111.629 39.3813 103.453V103.45C39.4895 102.202 39.6581 101.344 39.9094 101.006C41.8182 98.4612 54.2254 92.0985 55.6157 92.3562C57.0027 92.6139 68.8596 100.052 68.8596 100.052C71.7228 100.052 71.6305 96.9469 71.6305 96.9469C71.6305 96.9469 73.6316 100.688 77.4492 101.643C81.2668 102.597 82.8574 109.278 82.8574 109.278Z" fill="#575A88"/>
<path d="M61.5862 150.522C61.5862 150.522 82.0791 151.175 78.4891 153.61C74.8992 156.044 58.9925 158.271 58.6744 155.09C58.3563 151.909 61.5862 150.522 61.5862 150.522Z" fill="#9F616A"/>
<path opacity="0.1" d="M63.9258 152.758C63.9926 153.98 60.7063 156.731 59.6437 158.593C59.0552 159.623 54.4995 158.265 48.8653 155.748C44.5418 153.808 40.3476 151.591 36.3086 149.112C36.4263 145.062 37.5748 140.72 38.6469 139.186C40.578 136.425 38.6787 111.633 39.3913 103.457V103.454C39.5612 103.367 39.7378 103.295 39.9194 103.237H43.737C56.7805 109.282 41.8282 135.369 41.8282 135.369C41.8282 135.369 61.5525 151.594 63.4613 152.23C63.5865 152.254 63.7002 152.318 63.7843 152.414C63.8685 152.51 63.9182 152.631 63.9258 152.758V152.758Z" fill="black"/>
<path d="M43.7174 101.323H39.8998C39.8998 101.323 36.4004 102.278 33.5372 108.64C30.6739 115.003 20.1755 134.727 29.4014 142.363C38.6273 149.998 58.3516 158.905 59.6241 156.679C60.8966 154.452 65.3505 150.952 63.4417 150.316C61.5329 149.68 41.8086 133.455 41.8086 133.455C41.8086 133.455 56.7609 107.368 43.7174 101.323Z" fill="#575A88"/>
<path d="M63.0985 71.3068C63.0985 71.3068 63.5592 64.929 69.2429 67.5295C74.9266 70.13 74.5557 62.9622 72.8381 61.6955C71.1206 60.4289 71.1749 60.1154 64.8931 60.9629C58.6112 61.8104 46.4153 63.2462 50.3588 75.8772C54.3023 88.5081 57.8737 85.2588 57.8737 85.2588C57.8737 85.2588 54.7392 73.8926 57.9152 76.058L61.0913 78.2235L62.7673 77.8685L63.0985 71.3068Z" fill="#2F2E41"/>
<path d="M110.386 232.666L90.0963 177.504L36.4882 173.72L22.5527 232.63L21.9336 232.483L35.9938 173.047L36.2633 173.066L90.5512 176.898L90.6225 177.091L110.983 232.447L110.386 232.666Z" fill="#2F2E41"/>
<path opacity="0.4" d="M189.843 186.762C195.334 186.762 199.784 182.311 199.784 176.821C199.784 171.331 195.334 166.88 189.843 166.88C184.353 166.88 179.902 171.331 179.902 176.821C179.902 182.311 184.353 186.762 189.843 186.762Z" fill="#6C63FF"/>
<path opacity="0.4" d="M171.427 188.537C175.278 188.537 178.4 185.415 178.4 181.563C178.4 177.712 175.278 174.59 171.427 174.59C167.575 174.59 164.453 177.712 164.453 181.563C164.453 185.415 167.575 188.537 171.427 188.537Z" fill="#6C63FF"/>
<path opacity="0.4" d="M17.7743 90.2361C21.6257 90.2361 24.7479 87.114 24.7479 83.2626C24.7479 79.4112 21.6257 76.2891 17.7743 76.2891C13.9229 76.2891 10.8008 79.4112 10.8008 83.2626C10.8008 87.114 13.9229 90.2361 17.7743 90.2361Z" fill="#6C63FF"/>
<path d="M150.968 235.14L150.332 235.128C150.578 228.053 151.333 221.006 152.591 214.04C155.342 199.125 159.917 189.33 166.189 184.927L166.554 185.447C151.903 195.734 150.976 234.747 150.968 235.14Z" fill="#2F2E41"/>
<path d="M158.937 234.985L158.301 234.972C158.314 234.268 158.712 217.661 165.25 213.071L165.615 213.592C159.341 217.997 158.94 234.815 158.937 234.985Z" fill="#2F2E41"/>
<path d="M170.174 185.503C171.931 185.503 173.355 184.079 173.355 182.322C173.355 180.565 171.931 179.141 170.174 179.141C168.417 179.141 166.992 180.565 166.992 182.322C166.992 184.079 168.417 185.503 170.174 185.503Z" fill="#6C63FF"/>
<path d="M168.611 212.862C170.368 212.862 171.792 211.437 171.792 209.68C171.792 207.923 170.368 206.499 168.611 206.499C166.854 206.499 165.43 207.923 165.43 209.68C165.43 211.437 166.854 212.862 168.611 212.862Z" fill="#6C63FF"/>
<path d="M157.465 187.41C158.063 191.229 156.504 194.645 156.504 194.645C156.504 194.645 153.977 191.869 153.379 188.05C152.781 184.231 154.339 180.815 154.339 180.815C154.339 180.815 156.867 183.591 157.465 187.41Z" fill="#2F2E41"/>
<path d="M167.838 196.684C164.182 197.938 160.547 196.999 160.547 196.999C160.547 196.999 162.84 194.026 166.496 192.772C170.153 191.518 173.787 192.457 173.787 192.457C173.787 192.457 171.494 195.43 167.838 196.684Z" fill="#2F2E41"/>
<path d="M167.962 220.916C166.307 221.436 164.545 221.512 162.852 221.137C163.927 219.768 165.375 218.739 167.022 218.174C168.668 217.609 170.443 217.532 172.132 217.953C171.026 219.289 169.588 220.31 167.962 220.916V220.916Z" fill="#2F2E41"/>
<path d="M54.624 62.2314L56.9767 61.7967L59.3462 74.6232L55.5921 75.3167L53.4815 63.8916C53.4129 63.5199 53.4947 63.1362 53.7089 62.8249C53.9232 62.5135 54.2524 62.3 54.624 62.2314V62.2314Z" fill="#6C63FF"/>
<path d="M57.8775 82.0782C60.513 82.0782 62.6495 79.9417 62.6495 77.3062C62.6495 74.6707 60.513 72.5342 57.8775 72.5342C55.242 72.5342 53.1055 74.6707 53.1055 77.3062C53.1055 79.9417 55.242 82.0782 57.8775 82.0782Z" fill="#6C63FF"/>
<path d="M57.8827 80.1698C59.4641 80.1698 60.746 78.8879 60.746 77.3066C60.746 75.7253 59.4641 74.4434 57.8827 74.4434C56.3014 74.4434 55.0195 75.7253 55.0195 77.3066C55.0195 78.8879 56.3014 80.1698 57.8827 80.1698Z" fill="#F2F2F2"/>
<path d="M57.888 78.2613C58.4151 78.2613 58.8424 77.834 58.8424 77.3069C58.8424 76.7798 58.4151 76.3525 57.888 76.3525C57.3609 76.3525 56.9336 76.7798 56.9336 77.3069C56.9336 77.834 57.3609 78.2613 57.888 78.2613Z" fill="#6C63FF"/>
<path d="M237.154 42.9346V71.5666H195.533L187.844 80.7925L188.722 71.5666H184.98V42.9346H237.154Z" fill="#4E064F"/>
<path opacity="0.1" d="M237.149 52.7979H218.379V71.5677H237.149V52.7979Z" fill="black"/>
<path d="M222.52 56.9336H274.693V85.5656H270.952L271.83 94.7915L264.142 85.5656H222.52V56.9336Z" fill="#4E064F"/>
<path opacity="0.1" d="M188.152 85.4086C194.477 85.4086 199.605 84.9083 199.605 84.2912C199.605 83.6741 194.477 83.1738 188.152 83.1738C181.827 83.1738 176.699 83.6741 176.699 84.2912C176.699 84.9083 181.827 85.4086 188.152 85.4086Z" fill="black"/>
<path opacity="0.1" d="M271.833 100.519C279.036 100.519 284.876 99.949 284.876 99.2462C284.876 98.5434 279.036 97.9736 271.833 97.9736C264.629 97.9736 258.789 98.5434 258.789 99.2462C258.789 99.949 264.629 100.519 271.833 100.519Z" fill="black"/>
</g>
<defs>
<clipPath id="clip0">
<rect width="300" height="251.007" fill="white"/>
</clipPath>
</defs>
</svg>
