<?xml version="1.0" encoding="UTF-8"?>
<svg width="12px" height="12px" viewBox="0 0 12 12" version="1.1" xmlns="http://www.w3.org/2000/svg" xmlns:xlink="http://www.w3.org/1999/xlink">
    <!-- Generator: Sketch 52 (66869) - http://www.bohemiancoding.com/sketch -->
    <title>Artboard</title>
    <desc>Created with Sketch.</desc>
    <g id="Artboard" stroke="none" stroke-width="1" fill="none" fill-rule="evenodd">
        <path d="M0,10.25 L0,2.75 C0,2.54629528 0.0740733333,2.37037111 0.222222222,2.22222222 C0.370371111,2.07407333 0.546295278,2 0.75,2 L5.08333333,2 C5.194445,2 5.30324021,2.03935146 5.40972222,2.11805556 C5.51620424,2.19675965 5.58796278,2.29166611 5.625,2.40277778 L6,3.5 L11.25,3.5 C11.4537047,3.5 11.6296289,3.57407333 11.7777778,3.72222222 C11.9259267,3.87037111 12,4.04629528 12,4.25 L12,10.25 C12,10.4537047 11.9259267,10.6296289 11.7777778,10.7777778 C11.6296289,10.9259267 11.4537047,11 11.25,11 L0.75,11 C0.546295278,11 0.370371111,10.9259267 0.222222222,10.7777778 C0.0740733333,10.6296289 0,10.4537047 0,10.25 Z" id="folder" fill="#6C6C6C"></path>
    </g>
</svg>