<?xml version="1.0" encoding="UTF-8"?>
<svg width="11px" height="12px" viewBox="0 0 11 12" version="1.1" xmlns="http://www.w3.org/2000/svg" xmlns:xlink="http://www.w3.org/1999/xlink">
    <!-- Generator: Sketch 52 (66869) - http://www.bohemiancoding.com/sketch -->
    <title>settings</title>
    <desc>Created with Sketch.</desc>
    <g id="Page-1" stroke="none" stroke-width="1" fill="none" fill-rule="evenodd">
        <path d="M9.7961756,6.69751327 L10.9104961,7.69693486 C11.0000002,7.7617125 11.0223759,7.84962371 10.9776239,7.96067111 C10.7538636,8.67322524 10.3869023,9.33024582 9.87672889,9.93175256 C9.80512561,10.0242921 9.72009798,10.0474266 9.62164346,10.0011568 L8.22538639,9.50144605 C7.86736997,9.79757244 7.48250809,10.0289177 7.0707892,10.1954888 L6.78885268,11.6946212 C6.77095186,11.8056686 6.70829992,11.8704453 6.600895,11.8889532 C6.21602734,11.9629848 5.84906601,12 5.5,12 C5.15093399,12 4.78397266,11.9629848 4.399105,11.8889532 C4.29170008,11.8704453 4.22904814,11.8056686 4.21114732,11.6946212 L3.9292108,10.1954888 C3.49064068,10.0196638 3.1057788,9.78831849 2.77461361,9.50144605 L1.37835654,10.0011568 C1.27990202,10.0474266 1.19487439,10.0242921 1.12327111,9.93175256 C0.613097707,9.33024582 0.246136378,8.67322524 0.0223761135,7.96067111 C-0.0223759394,7.84962371 -2.48620986e-07,7.7617125 0.0895038572,7.69693486 L1.2038244,6.69751327 C1.16802276,6.50318033 1.15012221,6.27183505 1.15012221,6.00347051 C1.15012221,5.73510596 1.16802276,5.50376069 1.2038244,5.30942774 L0.0895038572,4.31000616 C-2.48620986e-07,4.24522851 -0.0223759394,4.15731731 0.0223761135,4.04626991 C0.246136378,3.33371578 0.613097707,2.6766952 1.12327111,2.07518846 C1.19487439,1.98264896 1.27990202,1.95951443 1.37835654,2.00578418 L2.77461361,2.50549497 C3.1057788,2.21862253 3.49064068,1.98727725 3.9292108,1.81145221 L4.21114732,0.312319834 C4.22904814,0.201272437 4.29170008,0.13649576 4.399105,0.11798786 C5.13303867,-0.0393292867 5.86696133,-0.0393292867 6.600895,0.11798786 C6.70829992,0.13649576 6.77095186,0.201272437 6.78885268,0.312319834 L7.0707892,1.81145221 C7.48250809,1.9780233 7.86736997,2.20936858 8.22538639,2.50549497 L9.62164346,2.00578418 C9.72009798,1.95951443 9.80512561,1.98264896 9.87672889,2.07518846 C10.3869023,2.6766952 10.7538636,3.33371578 10.9776239,4.04626991 C11.0223759,4.15731731 11.0000002,4.24522851 10.9104961,4.31000616 L9.7961756,5.30942774 C9.83197724,5.50376069 9.84987779,5.73510596 9.84987779,6.00347051 C9.84987779,6.27183505 9.83197724,6.50318033 9.7961756,6.69751327 Z M5.5,8.25216907 C6.09967751,8.25216907 6.61208083,8.03239106 7.03722533,7.59282844 C7.46236983,7.15326583 7.6749389,6.62348515 7.6749389,6.00347051 C7.6749389,5.38345587 7.46236983,4.85367519 7.03722533,4.41411258 C6.61208083,3.97454996 6.09967751,3.75477195 5.5,3.75477195 C4.90032249,3.75477195 4.38791917,3.97454996 3.96277467,4.41411258 C3.53763017,4.85367519 3.3250611,5.38345587 3.3250611,6.00347051 C3.3250611,6.6327391 3.5353926,7.16483323 3.95606189,7.59976887 C4.37673119,8.03470451 4.89137208,8.25216907 5.5,8.25216907 Z" id="settings" fill="#FFFFFF"></path>
    </g>
</svg>