<?xml version="1.0" encoding="UTF-8"?>
<svg width="12px" height="12px" viewBox="0 0 12 12" version="1.1" xmlns="http://www.w3.org/2000/svg" xmlns:xlink="http://www.w3.org/1999/xlink">
    <!-- Generator: Sketch 52 (66869) - http://www.bohemiancoding.com/sketch -->
    <title>avatar</title>
    <desc>Created with Sketch.</desc>
    <g id="Page-1" stroke="none" stroke-width="1" fill="none" fill-rule="evenodd">
        <path d="M10.9118422,11.1875 L10.8618422,11.2 C10.8285087,11.2083334 10.7785092,11.2187499 10.7118422,11.23125 C10.6451752,11.2437501 10.5660093,11.2604166 10.4743422,11.28125 C10.3826751,11.3020834 10.2680929,11.3229166 10.1305922,11.34375 C9.99309153,11.3645834 9.84517634,11.3833333 9.68684222,11.4 C8.57016997,11.533334 7.20768359,11.6 5.59934222,11.6 C3.15766334,11.6 1.38684772,11.4625014 0.286842216,11.1875 C0.186841716,11.1541665 0.109759154,11.0937504 0.0555922161,11.00625 C0.00142527864,10.9187496 -0.0131579089,10.8208339 0.0118422161,10.7125 C0.128509466,10.1624972 0.332674091,9.70833513 0.624342216,9.35 C0.916010341,8.99166488 1.30767309,8.65833488 1.79934222,8.35 C1.94934297,8.25833288 2.24517334,8.12083425 2.68684222,7.9375 C2.95351022,7.82916613 3.16184147,7.741667 3.31184222,7.675 C3.46184297,7.608333 3.62225803,7.508334 3.79309222,7.375 C3.9639264,7.241666 4.07434197,7.10416738 4.12434222,6.9625 C4.22434272,6.67083188 4.10351059,6.258336 3.76184222,5.725 C2.70350359,4.04165825 2.51600547,2.61250588 3.19934222,1.4375 C3.45767684,0.98749775 3.79934009,0.635417938 4.22434222,0.38125 C4.64934434,0.127082062 5.10767309,0 5.59934222,0 C6.09101134,0 6.54725678,0.127082062 6.96809222,0.38125 C7.38892765,0.635417938 7.73267422,0.98749775 7.99934222,1.4375 C8.68267897,2.6041725 8.49934747,4.03332488 7.44934222,5.725 C7.11600722,6.25000263 6.99100847,6.6624985 7.07434222,6.9625 C7.14100922,7.17083438 7.29517434,7.34583263 7.53684222,7.4875 C7.77851009,7.62916738 8.10767347,7.77916588 8.52434222,7.9375 C8.94934434,8.12083425 9.24100809,8.25833288 9.39934222,8.35 C9.89101134,8.65833488 10.2826741,8.99166488 10.5743422,9.35 C10.8660103,9.70833513 11.070175,10.1624972 11.1868422,10.7125 C11.2118423,10.8208339 11.1972592,10.9187496 11.1430922,11.00625 C11.0889253,11.0937504 11.0118427,11.1541665 10.9118422,11.1875 Z" id="avatar" fill="#6C6C6C"></path>
    </g>
</svg>