<?xml version="1.0" encoding="UTF-8"?>
<svg width="13px" height="10px" viewBox="0 0 13 10" version="1.1" xmlns="http://www.w3.org/2000/svg" xmlns:xlink="http://www.w3.org/1999/xlink">
    <!-- Generator: Sketch 52 (66869) - http://www.bohemiancoding.com/sketch -->
    <title>Combined Shape</title>
    <desc>Created with Sketch.</desc>
    <g id="Page-1" stroke="none" stroke-width="1" fill="none" fill-rule="evenodd">
        <path d="M9.39855662,7.94135424 C9.39952226,7.95404815 9.40001391,7.96687455 9.40001391,7.97981578 L9.40001391,8.82596962 C9.40001391,9.102112 9.17615629,9.32596962 8.90001391,9.32596962 L3.90001391,9.32596962 C3.62387154,9.32596962 3.40001391,9.102112 3.40001391,8.82596962 L3.40001391,7.97981578 C3.40001391,7.7036734 3.62387154,7.47981578 3.90001391,7.47981578 L7.40001391,7.47981578 L7.40001391,-2.17403038 C7.40001391,-2.45017275 7.62387154,-2.67403038 7.90001391,-2.67403038 L8.90001391,-2.67403038 C9.17615629,-2.67403038 9.40001391,-2.45017275 9.40001391,-2.17403038 L9.40001391,7.9028927 C9.40001391,7.91583393 9.39952226,7.92866033 9.39855662,7.94135424 Z" id="Combined-Shape" fill="#6C6C6C" transform="translate(6.400014, 3.325970) rotate(46.000000) translate(-6.400014, -3.325970) "></path>
    </g>
</svg>